#OBJ file exported by grch-procedural-gen
 o grchDungeon
v 1718 1610 1561
v 2009 1610 1561
v 2009 2006 1561
v 2009 2006 1998
v 1718 2006 1998
v 2009 1610 1998
v 1718 2006 1561
v 1718 1610 1998
vn 0 0 1
vn 0 0 -1
vn 0 1 0
vn 0 -1 0
vn 1 0 0
vn -1 0 0
f 1 7 5
f 1 5 8
f 1 7 3
f 1 3 2
f 2 3 4
f 2 4 6
f 1 8 6
f 1 6 2 
f 7 5 4
f 7 4 3
f 8 5 4
f 8 4 6
v 1723 1317 1555
v 2004 1317 1555
v 2004 1543 1555
v 2004 1543 2004
v 1723 1543 2004
v 2004 1317 2004
v 1723 1543 1555
v 1723 1317 2004
vn 0 0 1
vn 0 0 -1
vn 0 1 0
vn 0 -1 0
vn 1 0 0
vn -1 0 0
f 1 7 5
f 1 5 8
f 1 7 3
f 1 3 2
f 2 3 4
f 2 4 6
f 1 8 6
f 1 6 2 
f 7 5 4
f 7 4 3
f 8 5 4
f 8 4 6
v 1712 1330 934
v 2015 1330 934
v 2015 1562 934
v 2015 1562 1442
v 1712 1562 1442
v 2015 1330 1442
v 1712 1562 934
v 1712 1330 1442
vn 0 0 1
vn 0 0 -1
vn 0 1 0
vn 0 -1 0
vn 1 0 0
vn -1 0 0
f 1 7 5
f 1 5 8
f 1 7 3
f 1 3 2
f 2 3 4
f 2 4 6
f 1 8 6
f 1 6 2 
f 7 5 4
f 7 4 3
f 8 5 4
f 8 4 6
v 1219 1329 1513
v 1631 1329 1513
v 1631 1600 1513
v 1631 1600 1993
v 1219 1600 1993
v 1631 1329 1993
v 1219 1600 1513
v 1219 1329 1993
vn 0 0 1
vn 0 0 -1
vn 0 1 0
vn 0 -1 0
vn 1 0 0
vn -1 0 0
f 1 7 5
f 1 5 8
f 1 7 3
f 1 3 2
f 2 3 4
f 2 4 6
f 1 8 6
f 1 6 2 
f 7 5 4
f 7 4 3
f 8 5 4
f 8 4 6
v 1214 1698 938
v 1636 1698 938
v 1636 1998 938
v 1636 1998 1385
v 1214 1998 1385
v 1636 1698 1385
v 1214 1998 938
v 1214 1698 1385
vn 0 0 1
vn 0 0 -1
vn 0 1 0
vn 0 -1 0
vn 1 0 0
vn -1 0 0
f 1 7 5
f 1 5 8
f 1 7 3
f 1 3 2
f 2 3 4
f 2 4 6
f 1 8 6
f 1 6 2 
f 7 5 4
f 7 4 3
f 8 5 4
f 8 4 6
v 1225 1329 930
v 1625 1329 930
v 1625 1611 930
v 1625 1611 1393
v 1225 1611 1393
v 1625 1329 1393
v 1225 1611 930
v 1225 1329 1393
vn 0 0 1
vn 0 0 -1
vn 0 1 0
vn 0 -1 0
vn 1 0 0
vn -1 0 0
f 1 7 5
f 1 5 8
f 1 7 3
f 1 3 2
f 2 3 4
f 2 4 6
f 1 8 6
f 1 6 2 
f 7 5 4
f 7 4 3
f 8 5 4
f 8 4 6
v 1751 1824 436
v 2013 1824 436
v 2013 2023 436
v 2013 2023 821
v 1751 2023 821
v 2013 1824 821
v 1751 2023 436
v 1751 1824 821
vn 0 0 1
vn 0 0 -1
vn 0 1 0
vn 0 -1 0
vn 1 0 0
vn -1 0 0
f 1 7 5
f 1 5 8
f 1 7 3
f 1 3 2
f 2 3 4
f 2 4 6
f 1 8 6
f 1 6 2 
f 7 5 4
f 7 4 3
f 8 5 4
f 8 4 6
v 1758 1334 448
v 2006 1334 448
v 2006 1757 448
v 2006 1757 809
v 1758 1757 809
v 2006 1334 809
v 1758 1757 448
v 1758 1334 809
vn 0 0 1
vn 0 0 -1
vn 0 1 0
vn 0 -1 0
vn 1 0 0
vn -1 0 0
f 1 7 5
f 1 5 8
f 1 7 3
f 1 3 2
f 2 3 4
f 2 4 6
f 1 8 6
f 1 6 2 
f 7 5 4
f 7 4 3
f 8 5 4
f 8 4 6
v 1754 1338 35
v 2010 1338 35
v 2010 1636 35
v 2010 1636 357
v 1754 1636 357
v 2010 1338 357
v 1754 1636 35
v 1754 1338 357
vn 0 0 1
vn 0 0 -1
vn 0 1 0
vn 0 -1 0
vn 1 0 0
vn -1 0 0
f 1 7 5
f 1 5 8
f 1 7 3
f 1 3 2
f 2 3 4
f 2 4 6
f 1 8 6
f 1 6 2 
f 7 5 4
f 7 4 3
f 8 5 4
f 8 4 6
v 1226 1749 549
v 1661 1749 549
v 1661 2022 549
v 1661 2022 828
v 1226 2022 828
v 1661 1749 828
v 1226 2022 549
v 1226 1749 828
vn 0 0 1
vn 0 0 -1
vn 0 1 0
vn 0 -1 0
vn 1 0 0
vn -1 0 0
f 1 7 5
f 1 5 8
f 1 7 3
f 1 3 2
f 2 3 4
f 2 4 6
f 1 8 6
f 1 6 2 
f 7 5 4
f 7 4 3
f 8 5 4
f 8 4 6
v 1239 1323 57
v 1648 1323 57
v 1648 1632 57
v 1648 1632 455
v 1239 1632 455
v 1648 1323 455
v 1239 1632 57
v 1239 1323 455
vn 0 0 1
vn 0 0 -1
vn 0 1 0
vn 0 -1 0
vn 1 0 0
vn -1 0 0
f 1 7 5
f 1 5 8
f 1 7 3
f 1 3 2
f 2 3 4
f 2 4 6
f 1 8 6
f 1 6 2 
f 7 5 4
f 7 4 3
f 8 5 4
f 8 4 6
v 521 1818 1581
v 1077 1818 1581
v 1077 2016 1581
v 1077 2016 1981
v 521 2016 1981
v 1077 1818 1981
v 521 2016 1581
v 521 1818 1981
vn 0 0 1
vn 0 0 -1
vn 0 1 0
vn 0 -1 0
vn 1 0 0
vn -1 0 0
f 1 7 5
f 1 5 8
f 1 7 3
f 1 3 2
f 2 3 4
f 2 4 6
f 1 8 6
f 1 6 2 
f 7 5 4
f 7 4 3
f 8 5 4
f 8 4 6
v 34 1624 1404
v 393 1624 1404
v 393 2006 1404
v 393 2006 1985
v 34 2006 1985
v 393 1624 1985
v 34 2006 1404
v 34 1624 1985
vn 0 0 1
vn 0 0 -1
vn 0 1 0
vn 0 -1 0
vn 1 0 0
vn -1 0 0
f 1 7 5
f 1 5 8
f 1 7 3
f 1 3 2
f 2 3 4
f 2 4 6
f 1 8 6
f 1 6 2 
f 7 5 4
f 7 4 3
f 8 5 4
f 8 4 6
v 45 1328 1429
v 382 1328 1429
v 382 1546 1429
v 382 1546 1960
v 45 1546 1960
v 382 1328 1960
v 45 1546 1429
v 45 1328 1960
vn 0 0 1
vn 0 0 -1
vn 0 1 0
vn 0 -1 0
vn 1 0 0
vn -1 0 0
f 1 7 5
f 1 5 8
f 1 7 3
f 1 3 2
f 2 3 4
f 2 4 6
f 1 8 6
f 1 6 2 
f 7 5 4
f 7 4 3
f 8 5 4
f 8 4 6
v 35 1745 948
v 392 1745 948
v 392 2012 948
v 392 2012 1296
v 35 2012 1296
v 392 1745 1296
v 35 2012 948
v 35 1745 1296
vn 0 0 1
vn 0 0 -1
vn 0 1 0
vn 0 -1 0
vn 1 0 0
vn -1 0 0
f 1 7 5
f 1 5 8
f 1 7 3
f 1 3 2
f 2 3 4
f 2 4 6
f 1 8 6
f 1 6 2 
f 7 5 4
f 7 4 3
f 8 5 4
f 8 4 6
v 543 1605 384
v 1089 1605 384
v 1089 1995 384
v 1089 1995 834
v 543 1995 834
v 1089 1605 834
v 543 1995 384
v 543 1605 834
vn 0 0 1
vn 0 0 -1
vn 0 1 0
vn 0 -1 0
vn 1 0 0
vn -1 0 0
f 1 7 5
f 1 5 8
f 1 7 3
f 1 3 2
f 2 3 4
f 2 4 6
f 1 8 6
f 1 6 2 
f 7 5 4
f 7 4 3
f 8 5 4
f 8 4 6
v 519 1731 39
v 1113 1731 39
v 1113 2008 39
v 1113 2008 276
v 519 2008 276
v 1113 1731 276
v 519 2008 39
v 519 1731 276
vn 0 0 1
vn 0 0 -1
vn 0 1 0
vn 0 -1 0
vn 1 0 0
vn -1 0 0
f 1 7 5
f 1 5 8
f 1 7 3
f 1 3 2
f 2 3 4
f 2 4 6
f 1 8 6
f 1 6 2 
f 7 5 4
f 7 4 3
f 8 5 4
f 8 4 6
v 38 1603 403
v 423 1603 403
v 423 1990 403
v 423 1990 853
v 38 1990 853
v 423 1603 853
v 38 1990 403
v 38 1603 853
vn 0 0 1
vn 0 0 -1
vn 0 1 0
vn 0 -1 0
vn 1 0 0
vn -1 0 0
f 1 7 5
f 1 5 8
f 1 7 3
f 1 3 2
f 2 3 4
f 2 4 6
f 1 8 6
f 1 6 2 
f 7 5 4
f 7 4 3
f 8 5 4
f 8 4 6
v 55 1321 407
v 406 1321 407
v 406 1516 407
v 406 1516 849
v 55 1516 849
v 406 1321 849
v 55 1516 407
v 55 1321 849
vn 0 0 1
vn 0 0 -1
vn 0 1 0
vn 0 -1 0
vn 1 0 0
vn -1 0 0
f 1 7 5
f 1 5 8
f 1 7 3
f 1 3 2
f 2 3 4
f 2 4 6
f 1 8 6
f 1 6 2 
f 7 5 4
f 7 4 3
f 8 5 4
f 8 4 6
v 1404 876 1536
v 1964 876 1536
v 1964 1245 1536
v 1964 1245 1994
v 1404 1245 1994
v 1964 876 1994
v 1404 1245 1536
v 1404 876 1994
vn 0 0 1
vn 0 0 -1
vn 0 1 0
vn 0 -1 0
vn 1 0 0
vn -1 0 0
f 1 7 5
f 1 5 8
f 1 7 3
f 1 3 2
f 2 3 4
f 2 4 6
f 1 8 6
f 1 6 2 
f 7 5 4
f 7 4 3
f 8 5 4
f 8 4 6
v 1397 877 1158
v 1971 877 1158
v 1971 1244 1158
v 1971 1244 1436
v 1397 1244 1436
v 1971 877 1436
v 1397 1244 1158
v 1397 877 1436
vn 0 0 1
vn 0 0 -1
vn 0 1 0
vn 0 -1 0
vn 1 0 0
vn -1 0 0
f 1 7 5
f 1 5 8
f 1 7 3
f 1 3 2
f 2 3 4
f 2 4 6
f 1 8 6
f 1 6 2 
f 7 5 4
f 7 4 3
f 8 5 4
f 8 4 6
v 905 872 1747
v 1266 872 1747
v 1266 1249 1747
v 1266 1249 2013
v 905 1249 2013
v 1266 872 2013
v 905 1249 1747
v 905 872 2013
vn 0 0 1
vn 0 0 -1
vn 0 1 0
vn 0 -1 0
vn 1 0 0
vn -1 0 0
f 1 7 5
f 1 5 8
f 1 7 3
f 1 3 2
f 2 3 4
f 2 4 6
f 1 8 6
f 1 6 2 
f 7 5 4
f 7 4 3
f 8 5 4
f 8 4 6
v 1372 72 1613
v 1966 72 1613
v 1966 757 1613
v 1966 757 1987
v 1372 757 1987
v 1966 72 1987
v 1372 757 1613
v 1372 72 1987
vn 0 0 1
vn 0 0 -1
vn 0 1 0
vn 0 -1 0
vn 1 0 0
vn -1 0 0
f 1 7 5
f 1 5 8
f 1 7 3
f 1 3 2
f 2 3 4
f 2 4 6
f 1 8 6
f 1 6 2 
f 7 5 4
f 7 4 3
f 8 5 4
f 8 4 6
v 1357 99 1147
v 1981 99 1147
v 1981 730 1147
v 1981 730 1517
v 1357 730 1517
v 1981 99 1517
v 1357 730 1147
v 1357 99 1517
vn 0 0 1
vn 0 0 -1
vn 0 1 0
vn 0 -1 0
vn 1 0 0
vn -1 0 0
f 1 7 5
f 1 5 8
f 1 7 3
f 1 3 2
f 2 3 4
f 2 4 6
f 1 8 6
f 1 6 2 
f 7 5 4
f 7 4 3
f 8 5 4
f 8 4 6
v 896 91 1172
v 1245 91 1172
v 1245 738 1172
v 1245 738 1634
v 896 738 1634
v 1245 91 1634
v 896 738 1172
v 896 91 1634
vn 0 0 1
vn 0 0 -1
vn 0 1 0
vn 0 -1 0
vn 1 0 0
vn -1 0 0
f 1 7 5
f 1 5 8
f 1 7 3
f 1 3 2
f 2 3 4
f 2 4 6
f 1 8 6
f 1 6 2 
f 7 5 4
f 7 4 3
f 8 5 4
f 8 4 6
v 1452 779 39
v 1972 779 39
v 1972 1247 39
v 1972 1247 445
v 1452 1247 445
v 1972 779 445
v 1452 1247 39
v 1452 779 445
vn 0 0 1
vn 0 0 -1
vn 0 1 0
vn 0 -1 0
vn 1 0 0
vn -1 0 0
f 1 7 5
f 1 5 8
f 1 7 3
f 1 3 2
f 2 3 4
f 2 4 6
f 1 8 6
f 1 6 2 
f 7 5 4
f 7 4 3
f 8 5 4
f 8 4 6
v 901 786 71
v 1326 786 71
v 1326 1240 71
v 1326 1240 494
v 901 1240 494
v 1326 786 494
v 901 1240 71
v 901 786 494
vn 0 0 1
vn 0 0 -1
vn 0 1 0
vn 0 -1 0
vn 1 0 0
vn -1 0 0
f 1 7 5
f 1 5 8
f 1 7 3
f 1 3 2
f 2 3 4
f 2 4 6
f 1 8 6
f 1 6 2 
f 7 5 4
f 7 4 3
f 8 5 4
f 8 4 6
v 1570 73 426
v 2002 73 426
v 2002 661 426
v 2002 661 1052
v 1570 661 1052
v 2002 73 1052
v 1570 661 426
v 1570 73 1052
vn 0 0 1
vn 0 0 -1
vn 0 1 0
vn 0 -1 0
vn 1 0 0
vn -1 0 0
f 1 7 5
f 1 5 8
f 1 7 3
f 1 3 2
f 2 3 4
f 2 4 6
f 1 8 6
f 1 6 2 
f 7 5 4
f 7 4 3
f 8 5 4
f 8 4 6
v 916 86 600
v 1459 86 600
v 1459 648 600
v 1459 648 1040
v 916 648 1040
v 1459 86 1040
v 916 648 600
v 916 86 1040
vn 0 0 1
vn 0 0 -1
vn 0 1 0
vn 0 -1 0
vn 1 0 0
vn -1 0 0
f 1 7 5
f 1 5 8
f 1 7 3
f 1 3 2
f 2 3 4
f 2 4 6
f 1 8 6
f 1 6 2 
f 7 5 4
f 7 4 3
f 8 5 4
f 8 4 6
v 905 92 67
v 1470 92 67
v 1470 642 67
v 1470 642 461
v 905 642 461
v 1470 92 461
v 905 642 67
v 905 92 461
vn 0 0 1
vn 0 0 -1
vn 0 1 0
vn 0 -1 0
vn 1 0 0
vn -1 0 0
f 1 7 5
f 1 5 8
f 1 7 3
f 1 3 2
f 2 3 4
f 2 4 6
f 1 8 6
f 1 6 2 
f 7 5 4
f 7 4 3
f 8 5 4
f 8 4 6
v 387 598 1313
v 798 598 1313
v 798 1221 1313
v 798 1221 1958
v 387 1221 1958
v 798 598 1958
v 387 1221 1313
v 387 598 1958
vn 0 0 1
vn 0 0 -1
vn 0 1 0
vn 0 -1 0
vn 1 0 0
vn -1 0 0
f 1 7 5
f 1 5 8
f 1 7 3
f 1 3 2
f 2 3 4
f 2 4 6
f 1 8 6
f 1 6 2 
f 7 5 4
f 7 4 3
f 8 5 4
f 8 4 6
v 38 618 1294
v 296 618 1294
v 296 1201 1294
v 296 1201 1977
v 38 1201 1977
v 296 618 1977
v 38 1201 1294
v 38 618 1977
vn 0 0 1
vn 0 0 -1
vn 0 1 0
vn 0 -1 0
vn 1 0 0
vn -1 0 0
f 1 7 5
f 1 5 8
f 1 7 3
f 1 3 2
f 2 3 4
f 2 4 6
f 1 8 6
f 1 6 2 
f 7 5 4
f 7 4 3
f 8 5 4
f 8 4 6
v 41 589 714
v 403 589 714
v 403 1230 714
v 403 1230 1167
v 41 1230 1167
v 403 589 1167
v 41 1230 714
v 41 589 1167
vn 0 0 1
vn 0 0 -1
vn 0 1 0
vn 0 -1 0
vn 1 0 0
vn -1 0 0
f 1 7 5
f 1 5 8
f 1 7 3
f 1 3 2
f 2 3 4
f 2 4 6
f 1 8 6
f 1 6 2 
f 7 5 4
f 7 4 3
f 8 5 4
f 8 4 6
v 406 65 765
v 787 65 765
v 787 462 765
v 787 462 1476
v 406 462 1476
v 787 65 1476
v 406 462 765
v 406 65 1476
vn 0 0 1
vn 0 0 -1
vn 0 1 0
vn 0 -1 0
vn 1 0 0
vn -1 0 0
f 1 7 5
f 1 5 8
f 1 7 3
f 1 3 2
f 2 3 4
f 2 4 6
f 1 8 6
f 1 6 2 
f 7 5 4
f 7 4 3
f 8 5 4
f 8 4 6
v 458 727 339
v 803 727 339
v 803 1222 339
v 803 1222 624
v 458 1222 624
v 803 727 624
v 458 1222 339
v 458 727 624
vn 0 0 1
vn 0 0 -1
vn 0 1 0
vn 0 -1 0
vn 1 0 0
vn -1 0 0
f 1 7 5
f 1 5 8
f 1 7 3
f 1 3 2
f 2 3 4
f 2 4 6
f 1 8 6
f 1 6 2 
f 7 5 4
f 7 4 3
f 8 5 4
f 8 4 6
v 43 715 405
v 367 715 405
v 367 1234 405
v 367 1234 632
v 43 1234 632
v 367 715 632
v 43 1234 405
v 43 715 632
vn 0 0 1
vn 0 0 -1
vn 0 1 0
vn 0 -1 0
vn 1 0 0
vn -1 0 0
f 1 7 5
f 1 5 8
f 1 7 3
f 1 3 2
f 2 3 4
f 2 4 6
f 1 8 6
f 1 6 2 
f 7 5 4
f 7 4 3
f 8 5 4
f 8 4 6
v 342 83 393
v 805 83 393
v 805 574 393
v 805 574 627
v 342 574 627
v 805 83 627
v 342 574 393
v 342 83 627
vn 0 0 1
vn 0 0 -1
vn 0 1 0
vn 0 -1 0
vn 1 0 0
vn -1 0 0
f 1 7 5
f 1 5 8
f 1 7 3
f 1 3 2
f 2 3 4
f 2 4 6
f 1 8 6
f 1 6 2 
f 7 5 4
f 7 4 3
f 8 5 4
f 8 4 6
v 351 71 44
v 796 71 44
v 796 586 44
v 796 586 317
v 351 586 317
v 796 71 317
v 351 586 44
v 351 71 317
vn 0 0 1
vn 0 0 -1
vn 0 1 0
vn 0 -1 0
vn 1 0 0
vn -1 0 0
f 1 7 5
f 1 5 8
f 1 7 3
f 1 3 2
f 2 3 4
f 2 4 6
f 1 8 6
f 1 6 2 
f 7 5 4
f 7 4 3
f 8 5 4
f 8 4 6
v 35 73 474
v 261 73 474
v 261 584 474
v 261 584 636
v 35 584 636
v 261 73 636
v 35 584 474
v 35 73 636
vn 0 0 1
vn 0 0 -1
vn 0 1 0
vn 0 -1 0
vn 1 0 0
vn -1 0 0
f 1 7 5
f 1 5 8
f 1 7 3
f 1 3 2
f 2 3 4
f 2 4 6
f 1 8 6
f 1 6 2 
f 7 5 4
f 7 4 3
f 8 5 4
f 8 4 6
v 554 309 297
v 594 309 297
v 594 349 297
v 594 349 346
v 554 349 346
v 594 309 346
v 554 349 297
v 554 309 346
vn 0 0 1
vn 0 0 -1
vn 0 1 0
vn 0 -1 0
vn 1 0 0
vn -1 0 0
f 1 7 5
f 1 5 8
f 1 7 3
f 1 3 2
f 2 3 4
f 2 4 6
f 1 8 6
f 1 6 2 
f 7 5 4
f 7 4 3
f 8 5 4
f 8 4 6
v 554 309 306
v 593 309 306
v 593 349 306
v 593 349 346
v 554 349 346
v 593 309 346
v 554 349 306
v 554 309 346
vn 0 0 1
vn 0 0 -1
vn 0 1 0
vn 0 -1 0
vn 1 0 0
vn -1 0 0
f 9 15 13
f 9 13 16
f 9 15 11
f 9 11 10
f 10 11 12
f 10 12 14
f 9 16 14
f 9 14 10 
f 15 13 12
f 15 12 11
f 16 13 12
f 16 12 14
v 553 309 306
v 593 309 306
v 593 348 306
v 593 348 346
v 553 348 346
v 593 309 346
v 553 348 306
v 553 309 346
vn 0 0 1
vn 0 0 -1
vn 0 1 0
vn 0 -1 0
vn 1 0 0
vn -1 0 0
f 17 23 21
f 17 21 24
f 17 23 19
f 17 19 18
f 18 19 20
f 18 20 22
f 17 24 22
f 17 22 18 
f 23 21 20
f 23 20 19
f 24 21 20
f 24 20 22
v 553 308 306
v 593 308 306
v 593 348 306
v 593 348 403
v 553 348 403
v 593 308 403
v 553 348 306
v 553 308 403
vn 0 0 1
vn 0 0 -1
vn 0 1 0
vn 0 -1 0
vn 1 0 0
vn -1 0 0
f 25 31 29
f 25 29 32
f 25 31 27
f 25 27 26
f 26 27 28
f 26 28 30
f 25 32 30
f 25 30 26 
f 31 29 28
f 31 28 27
f 32 29 28
f 32 28 30
v 553 308 363
v 593 308 363
v 593 348 363
v 593 348 412
v 553 348 412
v 593 308 412
v 553 348 363
v 553 308 412
vn 0 0 1
vn 0 0 -1
vn 0 1 0
vn 0 -1 0
vn 1 0 0
vn -1 0 0
f 33 39 37
f 33 37 40
f 33 39 35
f 33 35 34
f 34 35 36
f 34 36 38
f 33 40 38
f 33 38 34 
f 39 37 36
f 39 36 35
f 40 37 36
f 40 36 38
v 241 309 535
v 291 309 535
v 291 349 535
v 291 349 575
v 241 349 575
v 291 309 575
v 241 349 535
v 241 309 575
vn 0 0 1
vn 0 0 -1
vn 0 1 0
vn 0 -1 0
vn 1 0 0
vn -1 0 0
f 41 47 45
f 41 45 48
f 41 47 43
f 41 43 42
f 42 43 44
f 42 44 46
f 41 48 46
f 41 46 42 
f 47 45 44
f 47 44 43
f 48 45 44
f 48 44 46
v 251 309 535
v 351 309 535
v 351 349 535
v 351 349 575
v 251 349 575
v 351 309 575
v 251 349 535
v 251 309 575
vn 0 0 1
vn 0 0 -1
vn 0 1 0
vn 0 -1 0
vn 1 0 0
vn -1 0 0
f 49 55 53
f 49 53 56
f 49 55 51
f 49 51 50
f 50 51 52
f 50 52 54
f 49 56 54
f 49 54 50 
f 55 53 52
f 55 52 51
f 56 53 52
f 56 52 54
v 311 309 535
v 351 309 535
v 351 348 535
v 351 348 575
v 311 348 575
v 351 309 575
v 311 348 535
v 311 309 575
vn 0 0 1
vn 0 0 -1
vn 0 1 0
vn 0 -1 0
vn 1 0 0
vn -1 0 0
f 57 63 61
f 57 61 64
f 57 63 59
f 57 59 58
f 58 59 60
f 58 60 62
f 57 64 62
f 57 62 58 
f 63 61 60
f 63 60 59
f 64 61 60
f 64 60 62
v 311 308 535
v 351 308 535
v 351 348 535
v 351 348 530
v 311 348 530
v 351 308 530
v 311 348 535
v 311 308 530
vn 0 0 1
vn 0 0 -1
vn 0 1 0
vn 0 -1 0
vn 1 0 0
vn -1 0 0
f 65 71 69
f 65 69 72
f 65 71 67
f 65 67 66
f 66 67 68
f 66 68 70
f 65 72 70
f 65 70 66 
f 71 69 68
f 71 68 67
f 72 69 68
f 72 68 70
v 311 308 490
v 361 308 490
v 361 348 490
v 361 348 530
v 311 348 530
v 361 308 530
v 311 348 490
v 311 308 530
vn 0 0 1
vn 0 0 -1
vn 0 1 0
vn 0 -1 0
vn 1 0 0
vn -1 0 0
f 73 79 77
f 73 77 80
f 73 79 75
f 73 75 74
f 74 75 76
f 74 76 78
f 73 80 78
f 73 78 74 
f 79 77 76
f 79 76 75
f 80 77 76
f 80 76 78
v 347 955 499
v 398 955 499
v 398 995 499
v 398 995 539
v 347 995 539
v 398 955 539
v 347 995 499
v 347 955 539
vn 0 0 1
vn 0 0 -1
vn 0 1 0
vn 0 -1 0
vn 1 0 0
vn -1 0 0
f 81 87 85
f 81 85 88
f 81 87 83
f 81 83 82
f 82 83 84
f 82 84 86
f 81 88 86
f 81 86 82 
f 87 85 84
f 87 84 83
f 88 85 84
f 88 84 86
v 358 955 499
v 466 955 499
v 466 995 499
v 466 995 539
v 358 995 539
v 466 955 539
v 358 995 499
v 358 955 539
vn 0 0 1
vn 0 0 -1
vn 0 1 0
vn 0 -1 0
vn 1 0 0
vn -1 0 0
f 89 95 93
f 89 93 96
f 89 95 91
f 89 91 90
f 90 91 92
f 90 92 94
f 89 96 94
f 89 94 90 
f 95 93 92
f 95 92 91
f 96 93 92
f 96 92 94
v 426 955 499
v 466 955 499
v 466 994 499
v 466 994 539
v 426 994 539
v 466 955 539
v 426 994 499
v 426 955 539
vn 0 0 1
vn 0 0 -1
vn 0 1 0
vn 0 -1 0
vn 1 0 0
vn -1 0 0
f 97 103 101
f 97 101 104
f 97 103 99
f 97 99 98
f 98 99 100
f 98 100 102
f 97 104 102
f 97 102 98 
f 103 101 100
f 103 100 99
f 104 101 100
f 104 100 102
v 426 954 499
v 466 954 499
v 466 994 499
v 466 994 501
v 426 994 501
v 466 954 501
v 426 994 499
v 426 954 501
vn 0 0 1
vn 0 0 -1
vn 0 1 0
vn 0 -1 0
vn 1 0 0
vn -1 0 0
f 105 111 109
f 105 109 112
f 105 111 107
f 105 107 106
f 106 107 108
f 106 108 110
f 105 112 110
f 105 110 106 
f 111 109 108
f 111 108 107
f 112 109 108
f 112 108 110
v 426 954 461
v 477 954 461
v 477 994 461
v 477 994 501
v 426 994 501
v 477 954 501
v 426 994 461
v 426 954 501
vn 0 0 1
vn 0 0 -1
vn 0 1 0
vn 0 -1 0
vn 1 0 0
vn -1 0 0
f 113 119 117
f 113 117 120
f 113 119 115
f 113 115 114
f 114 115 116
f 114 116 118
f 113 120 118
f 113 118 114 
f 119 117 116
f 119 116 115
f 120 117 116
f 120 116 118
v 554 554 490
v 594 554 490
v 594 613 490
v 594 613 530
v 554 613 530
v 594 554 530
v 554 613 490
v 554 554 530
vn 0 0 1
vn 0 0 -1
vn 0 1 0
vn 0 -1 0
vn 1 0 0
vn -1 0 0
f 121 127 125
f 121 125 128
f 121 127 123
f 121 123 122
f 122 123 124
f 122 124 126
f 121 128 126
f 121 126 122 
f 127 125 124
f 127 124 123
f 128 125 124
f 128 124 126
v 554 573 490
v 650 573 490
v 650 613 490
v 650 613 530
v 554 613 530
v 650 573 530
v 554 613 490
v 554 573 530
vn 0 0 1
vn 0 0 -1
vn 0 1 0
vn 0 -1 0
vn 1 0 0
vn -1 0 0
f 129 135 133
f 129 133 136
f 129 135 131
f 129 131 130
f 130 131 132
f 130 132 134
f 129 136 134
f 129 134 130 
f 135 133 132
f 135 132 131
f 136 133 132
f 136 132 134
v 610 573 490
v 650 573 490
v 650 727 490
v 650 727 530
v 610 727 530
v 650 573 530
v 610 727 490
v 610 573 530
vn 0 0 1
vn 0 0 -1
vn 0 1 0
vn 0 -1 0
vn 1 0 0
vn -1 0 0
f 137 143 141
f 137 141 144
f 137 143 139
f 137 139 138
f 138 139 140
f 138 140 142
f 137 144 142
f 137 142 138 
f 143 141 140
f 143 140 139
f 144 141 140
f 144 140 142
v 610 687 490
v 650 687 490
v 650 727 490
v 650 727 501
v 610 727 501
v 650 687 501
v 610 727 490
v 610 687 501
vn 0 0 1
vn 0 0 -1
vn 0 1 0
vn 0 -1 0
vn 1 0 0
vn -1 0 0
f 145 151 149
f 145 149 152
f 145 151 147
f 145 147 146
f 146 147 148
f 146 148 150
f 145 152 150
f 145 150 146 
f 151 149 148
f 151 148 147
f 152 149 148
f 152 148 150
v 610 687 461
v 650 687 461
v 650 746 461
v 650 746 501
v 610 746 501
v 650 687 501
v 610 746 461
v 610 687 501
vn 0 0 1
vn 0 0 -1
vn 0 1 0
vn 0 -1 0
vn 1 0 0
vn -1 0 0
f 153 159 157
f 153 157 160
f 153 159 155
f 153 155 154
f 154 155 156
f 154 156 158
f 153 160 158
f 153 158 154 
f 159 157 156
f 159 156 155
f 160 157 156
f 160 156 158
v 276 890 1616
v 327 890 1616
v 327 930 1616
v 327 930 1656
v 276 930 1656
v 327 890 1656
v 276 930 1616
v 276 890 1656
vn 0 0 1
vn 0 0 -1
vn 0 1 0
vn 0 -1 0
vn 1 0 0
vn -1 0 0
f 161 167 165
f 161 165 168
f 161 167 163
f 161 163 162
f 162 163 164
f 162 164 166
f 161 168 166
f 161 166 162 
f 167 165 164
f 167 164 163
f 168 165 164
f 168 164 166
v 287 890 1616
v 395 890 1616
v 395 930 1616
v 395 930 1656
v 287 930 1656
v 395 890 1656
v 287 930 1616
v 287 890 1656
vn 0 0 1
vn 0 0 -1
vn 0 1 0
vn 0 -1 0
vn 1 0 0
vn -1 0 0
f 169 175 173
f 169 173 176
f 169 175 171
f 169 171 170
f 170 171 172
f 170 172 174
f 169 176 174
f 169 174 170 
f 175 173 172
f 175 172 171
f 176 173 172
f 176 172 174
v 355 890 1616
v 395 890 1616
v 395 929 1616
v 395 929 1656
v 355 929 1656
v 395 890 1656
v 355 929 1616
v 355 890 1656
vn 0 0 1
vn 0 0 -1
vn 0 1 0
vn 0 -1 0
vn 1 0 0
vn -1 0 0
f 177 183 181
f 177 181 184
f 177 183 179
f 177 179 178
f 178 179 180
f 178 180 182
f 177 184 182
f 177 182 178 
f 183 181 180
f 183 180 179
f 184 181 180
f 184 180 182
v 355 889 1616
v 395 889 1616
v 395 929 1616
v 395 929 1655
v 355 929 1655
v 395 889 1655
v 355 929 1616
v 355 889 1655
vn 0 0 1
vn 0 0 -1
vn 0 1 0
vn 0 -1 0
vn 1 0 0
vn -1 0 0
f 185 191 189
f 185 189 192
f 185 191 187
f 185 187 186
f 186 187 188
f 186 188 190
f 185 192 190
f 185 190 186 
f 191 189 188
f 191 188 187
f 192 189 188
f 192 188 190
v 355 889 1615
v 406 889 1615
v 406 929 1615
v 406 929 1655
v 355 929 1655
v 406 889 1655
v 355 929 1615
v 355 889 1655
vn 0 0 1
vn 0 0 -1
vn 0 1 0
vn 0 -1 0
vn 1 0 0
vn -1 0 0
f 193 199 197
f 193 197 200
f 193 199 195
f 193 195 194
f 194 195 196
f 194 196 198
f 193 200 198
f 193 198 194 
f 199 197 196
f 199 196 195
f 200 197 196
f 200 196 198
v 202 890 1147
v 242 890 1147
v 242 930 1147
v 242 930 1205
v 202 930 1205
v 242 890 1205
v 202 930 1147
v 202 890 1205
vn 0 0 1
vn 0 0 -1
vn 0 1 0
vn 0 -1 0
vn 1 0 0
vn -1 0 0
f 201 207 205
f 201 205 208
f 201 207 203
f 201 203 202
f 202 203 204
f 202 204 206
f 201 208 206
f 201 206 202 
f 207 205 204
f 207 204 203
f 208 205 204
f 208 204 206
v 202 890 1165
v 612 890 1165
v 612 930 1165
v 612 930 1205
v 202 930 1205
v 612 890 1205
v 202 930 1165
v 202 890 1205
vn 0 0 1
vn 0 0 -1
vn 0 1 0
vn 0 -1 0
vn 1 0 0
vn -1 0 0
f 209 215 213
f 209 213 216
f 209 215 211
f 209 211 210
f 210 211 212
f 210 212 214
f 209 216 214
f 209 214 210 
f 215 213 212
f 215 212 211
f 216 213 212
f 216 212 214
v 572 890 1165
v 612 890 1165
v 612 929 1165
v 612 929 1205
v 572 929 1205
v 612 890 1205
v 572 929 1165
v 572 890 1205
vn 0 0 1
vn 0 0 -1
vn 0 1 0
vn 0 -1 0
vn 1 0 0
vn -1 0 0
f 217 223 221
f 217 221 224
f 217 223 219
f 217 219 218
f 218 219 220
f 218 220 222
f 217 224 222
f 217 222 218 
f 223 221 220
f 223 220 219
f 224 221 220
f 224 220 222
v 572 889 1165
v 612 889 1165
v 612 929 1165
v 612 929 1314
v 572 929 1314
v 612 889 1314
v 572 929 1165
v 572 889 1314
vn 0 0 1
vn 0 0 -1
vn 0 1 0
vn 0 -1 0
vn 1 0 0
vn -1 0 0
f 225 231 229
f 225 229 232
f 225 231 227
f 225 227 226
f 226 227 228
f 226 228 230
f 225 232 230
f 225 230 226 
f 231 229 228
f 231 228 227
f 232 229 228
f 232 228 230
v 572 889 1274
v 612 889 1274
v 612 929 1274
v 612 929 1332
v 572 929 1332
v 612 889 1332
v 572 929 1274
v 572 889 1332
vn 0 0 1
vn 0 0 -1
vn 0 1 0
vn 0 -1 0
vn 1 0 0
vn -1 0 0
f 233 239 237
f 233 237 240
f 233 239 235
f 233 235 234
f 234 235 236
f 234 236 238
f 233 240 238
f 233 238 234 
f 239 237 236
f 239 236 235
f 240 237 236
f 240 236 238
v 577 442 1101
v 617 442 1101
v 617 499 1101
v 617 499 1141
v 577 499 1141
v 617 442 1141
v 577 499 1101
v 577 442 1141
vn 0 0 1
vn 0 0 -1
vn 0 1 0
vn 0 -1 0
vn 1 0 0
vn -1 0 0
f 241 247 245
f 241 245 248
f 241 247 243
f 241 243 242
f 242 243 244
f 242 244 246
f 241 248 246
f 241 246 242 
f 247 245 244
f 247 244 243
f 248 245 244
f 248 244 246
v 577 459 1101
v 612 459 1101
v 612 499 1101
v 612 499 1141
v 577 499 1141
v 612 459 1141
v 577 499 1101
v 577 459 1141
vn 0 0 1
vn 0 0 -1
vn 0 1 0
vn 0 -1 0
vn 1 0 0
vn -1 0 0
f 249 255 253
f 249 253 256
f 249 255 251
f 249 251 250
f 250 251 252
f 250 252 254
f 249 256 254
f 249 254 250 
f 255 253 252
f 255 252 251
f 256 253 252
f 256 252 254
v 572 459 1101
v 612 459 1101
v 612 601 1101
v 612 601 1141
v 572 601 1141
v 612 459 1141
v 572 601 1101
v 572 459 1141
vn 0 0 1
vn 0 0 -1
vn 0 1 0
vn 0 -1 0
vn 1 0 0
vn -1 0 0
f 257 263 261
f 257 261 264
f 257 263 259
f 257 259 258
f 258 259 260
f 258 260 262
f 257 264 262
f 257 262 258 
f 263 261 260
f 263 260 259
f 264 261 260
f 264 260 262
v 572 561 1101
v 612 561 1101
v 612 601 1101
v 612 601 1655
v 572 601 1655
v 612 561 1655
v 572 601 1101
v 572 561 1655
vn 0 0 1
vn 0 0 -1
vn 0 1 0
vn 0 -1 0
vn 1 0 0
vn -1 0 0
f 265 271 269
f 265 269 272
f 265 271 267
f 265 267 266
f 266 267 268
f 266 268 270
f 265 272 270
f 265 270 266 
f 271 269 268
f 271 268 267
f 272 269 268
f 272 268 270
v 572 561 1615
v 612 561 1615
v 612 618 1615
v 612 618 1655
v 572 618 1655
v 612 561 1655
v 572 618 1615
v 572 561 1655
vn 0 0 1
vn 0 0 -1
vn 0 1 0
vn 0 -1 0
vn 1 0 0
vn -1 0 0
f 273 279 277
f 273 277 280
f 273 279 275
f 273 275 274
f 274 275 276
f 274 276 278
f 273 280 278
f 273 278 274 
f 279 277 276
f 279 276 275
f 280 277 276
f 280 276 278
v 611 955 604
v 651 955 604
v 651 995 604
v 651 995 655
v 611 995 655
v 651 955 655
v 611 995 604
v 611 955 655
vn 0 0 1
vn 0 0 -1
vn 0 1 0
vn 0 -1 0
vn 1 0 0
vn -1 0 0
f 281 287 285
f 281 285 288
f 281 287 283
f 281 283 282
f 282 283 284
f 282 284 286
f 281 288 286
f 281 286 282 
f 287 285 284
f 287 284 283
f 288 285 284
f 288 284 286
v 611 955 615
v 242 955 615
v 242 995 615
v 242 995 655
v 611 995 655
v 242 955 655
v 611 995 615
v 611 955 655
vn 0 0 1
vn 0 0 -1
vn 0 1 0
vn 0 -1 0
vn 1 0 0
vn -1 0 0
f 289 295 293
f 289 293 296
f 289 295 291
f 289 291 290
f 290 291 292
f 290 292 294
f 289 296 294
f 289 294 290 
f 295 293 292
f 295 292 291
f 296 293 292
f 296 292 294
v 202 955 615
v 242 955 615
v 242 929 615
v 242 929 655
v 202 929 655
v 242 955 655
v 202 929 615
v 202 955 655
vn 0 0 1
vn 0 0 -1
vn 0 1 0
vn 0 -1 0
vn 1 0 0
vn -1 0 0
f 297 303 301
f 297 301 304
f 297 303 299
f 297 299 298
f 298 299 300
f 298 300 302
f 297 304 302
f 297 302 298 
f 303 301 300
f 303 300 299
f 304 301 300
f 304 300 302
v 202 889 615
v 242 889 615
v 242 929 615
v 242 929 722
v 202 929 722
v 242 889 722
v 202 929 615
v 202 889 722
vn 0 0 1
vn 0 0 -1
vn 0 1 0
vn 0 -1 0
vn 1 0 0
vn -1 0 0
f 305 311 309
f 305 309 312
f 305 311 307
f 305 307 306
f 306 307 308
f 306 308 310
f 305 312 310
f 305 310 306 
f 311 309 308
f 311 308 307
f 312 309 308
f 312 308 310
v 202 889 682
v 242 889 682
v 242 929 682
v 242 929 733
v 202 929 733
v 242 889 733
v 202 929 682
v 202 889 733
vn 0 0 1
vn 0 0 -1
vn 0 1 0
vn 0 -1 0
vn 1 0 0
vn -1 0 0
f 313 319 317
f 313 317 320
f 313 319 315
f 313 315 314
f 314 315 316
f 314 316 318
f 313 320 318
f 313 318 314 
f 319 317 316
f 319 316 315
f 320 317 316
f 320 316 318
v 1168 347 441
v 1208 347 441
v 1208 387 441
v 1208 387 498
v 1168 387 498
v 1208 347 498
v 1168 387 441
v 1168 347 498
vn 0 0 1
vn 0 0 -1
vn 0 1 0
vn 0 -1 0
vn 1 0 0
vn -1 0 0
f 321 327 325
f 321 325 328
f 321 327 323
f 321 323 322
f 322 323 324
f 322 324 326
f 321 328 326
f 321 326 322 
f 327 325 324
f 327 324 323
f 328 325 324
f 328 324 326
v 1168 347 458
v 1207 347 458
v 1207 387 458
v 1207 387 498
v 1168 387 498
v 1207 347 498
v 1168 387 458
v 1168 347 498
vn 0 0 1
vn 0 0 -1
vn 0 1 0
vn 0 -1 0
vn 1 0 0
vn -1 0 0
f 329 335 333
f 329 333 336
f 329 335 331
f 329 331 330
f 330 331 332
f 330 332 334
f 329 336 334
f 329 334 330 
f 335 333 332
f 335 332 331
f 336 333 332
f 336 332 334
v 1167 347 458
v 1207 347 458
v 1207 387 458
v 1207 387 498
v 1167 387 498
v 1207 347 498
v 1167 387 458
v 1167 347 498
vn 0 0 1
vn 0 0 -1
vn 0 1 0
vn 0 -1 0
vn 1 0 0
vn -1 0 0
f 337 343 341
f 337 341 344
f 337 343 339
f 337 339 338
f 338 339 340
f 338 340 342
f 337 344 342
f 337 342 338 
f 343 341 340
f 343 340 339
f 344 341 340
f 344 340 342
v 1167 347 458
v 1207 347 458
v 1207 387 458
v 1207 387 602
v 1167 387 602
v 1207 347 602
v 1167 387 458
v 1167 347 602
vn 0 0 1
vn 0 0 -1
vn 0 1 0
vn 0 -1 0
vn 1 0 0
vn -1 0 0
f 345 351 349
f 345 349 352
f 345 351 347
f 345 347 346
f 346 347 348
f 346 348 350
f 345 352 350
f 345 350 346 
f 351 349 348
f 351 348 347
f 352 349 348
f 352 348 350
v 1167 347 562
v 1207 347 562
v 1207 387 562
v 1207 387 619
v 1167 387 619
v 1207 347 619
v 1167 387 562
v 1167 347 619
vn 0 0 1
vn 0 0 -1
vn 0 1 0
vn 0 -1 0
vn 1 0 0
vn -1 0 0
f 353 359 357
f 353 357 360
f 353 359 355
f 353 355 354
f 354 355 356
f 354 356 358
f 353 360 358
f 353 358 354 
f 359 357 356
f 359 356 355
f 360 357 356
f 360 356 358
v 1439 347 800
v 1492 347 800
v 1492 387 800
v 1492 387 840
v 1439 387 840
v 1492 347 840
v 1439 387 800
v 1439 347 840
vn 0 0 1
vn 0 0 -1
vn 0 1 0
vn 0 -1 0
vn 1 0 0
vn -1 0 0
f 361 367 365
f 361 365 368
f 361 367 363
f 361 363 362
f 362 363 364
f 362 364 366
f 361 368 366
f 361 366 362 
f 367 365 364
f 367 364 363
f 368 365 364
f 368 364 366
v 1452 347 800
v 1575 347 800
v 1575 387 800
v 1575 387 840
v 1452 387 840
v 1575 347 840
v 1452 387 800
v 1452 347 840
vn 0 0 1
vn 0 0 -1
vn 0 1 0
vn 0 -1 0
vn 1 0 0
vn -1 0 0
f 369 375 373
f 369 373 376
f 369 375 371
f 369 371 370
f 370 371 372
f 370 372 374
f 369 376 374
f 369 374 370 
f 375 373 372
f 375 372 371
f 376 373 372
f 376 372 374
v 1535 347 800
v 1575 347 800
v 1575 387 800
v 1575 387 840
v 1535 387 840
v 1575 347 840
v 1535 387 800
v 1535 347 840
vn 0 0 1
vn 0 0 -1
vn 0 1 0
vn 0 -1 0
vn 1 0 0
vn -1 0 0
f 377 383 381
f 377 381 384
f 377 383 379
f 377 379 378
f 378 379 380
f 378 380 382
f 377 384 382
f 377 382 378 
f 383 381 380
f 383 380 379
f 384 381 380
f 384 380 382
v 1535 347 800
v 1575 347 800
v 1575 387 800
v 1575 387 759
v 1535 387 759
v 1575 347 759
v 1535 387 800
v 1535 347 759
vn 0 0 1
vn 0 0 -1
vn 0 1 0
vn 0 -1 0
vn 1 0 0
vn -1 0 0
f 385 391 389
f 385 389 392
f 385 391 387
f 385 387 386
f 386 387 388
f 386 388 390
f 385 392 390
f 385 390 386 
f 391 389 388
f 391 388 387
f 392 389 388
f 392 388 390
v 1535 347 719
v 1588 347 719
v 1588 387 719
v 1588 387 759
v 1535 387 759
v 1588 347 759
v 1535 387 719
v 1535 347 759
vn 0 0 1
vn 0 0 -1
vn 0 1 0
vn 0 -1 0
vn 1 0 0
vn -1 0 0
f 393 399 397
f 393 397 400
f 393 399 395
f 393 395 394
f 394 395 396
f 394 396 398
f 393 400 398
f 393 398 394 
f 399 397 396
f 399 396 395
f 400 397 396
f 400 396 398
v 1306 993 263
v 1361 993 263
v 1361 1033 263
v 1361 1033 303
v 1306 1033 303
v 1361 993 303
v 1306 1033 263
v 1306 993 303
vn 0 0 1
vn 0 0 -1
vn 0 1 0
vn 0 -1 0
vn 1 0 0
vn -1 0 0
f 401 407 405
f 401 405 408
f 401 407 403
f 401 403 402
f 402 403 404
f 402 404 406
f 401 408 406
f 401 406 402 
f 407 405 404
f 407 404 403
f 408 405 404
f 408 404 406
v 1321 993 263
v 1455 993 263
v 1455 1033 263
v 1455 1033 303
v 1321 1033 303
v 1455 993 303
v 1321 1033 263
v 1321 993 303
vn 0 0 1
vn 0 0 -1
vn 0 1 0
vn 0 -1 0
vn 1 0 0
vn -1 0 0
f 409 415 413
f 409 413 416
f 409 415 411
f 409 411 410
f 410 411 412
f 410 412 414
f 409 416 414
f 409 414 410 
f 415 413 412
f 415 412 411
f 416 413 412
f 416 412 414
v 1415 993 263
v 1455 993 263
v 1455 1033 263
v 1455 1033 303
v 1415 1033 303
v 1455 993 303
v 1415 1033 263
v 1415 993 303
vn 0 0 1
vn 0 0 -1
vn 0 1 0
vn 0 -1 0
vn 1 0 0
vn -1 0 0
f 417 423 421
f 417 421 424
f 417 423 419
f 417 419 418
f 418 419 420
f 418 420 422
f 417 424 422
f 417 422 418 
f 423 421 420
f 423 420 419
f 424 421 420
f 424 420 422
v 1415 993 263
v 1455 993 263
v 1455 1033 263
v 1455 1033 262
v 1415 1033 262
v 1455 993 262
v 1415 1033 263
v 1415 993 262
vn 0 0 1
vn 0 0 -1
vn 0 1 0
vn 0 -1 0
vn 1 0 0
vn -1 0 0
f 425 431 429
f 425 429 432
f 425 431 427
f 425 427 426
f 426 427 428
f 426 428 430
f 425 432 430
f 425 430 426 
f 431 429 428
f 431 428 427
f 432 429 428
f 432 428 430
v 1415 993 222
v 1470 993 222
v 1470 1033 222
v 1470 1033 262
v 1415 1033 262
v 1470 993 262
v 1415 1033 222
v 1415 993 262
vn 0 0 1
vn 0 0 -1
vn 0 1 0
vn 0 -1 0
vn 1 0 0
vn -1 0 0
f 433 439 437
f 433 437 440
f 433 439 435
f 433 435 434
f 434 435 436
f 434 436 438
f 433 440 438
f 433 438 434 
f 439 437 436
f 439 436 435
f 440 437 436
f 440 436 438
v 1766 641 719
v 1806 641 719
v 1806 695 719
v 1806 695 759
v 1766 695 759
v 1806 641 759
v 1766 695 719
v 1766 641 759
vn 0 0 1
vn 0 0 -1
vn 0 1 0
vn 0 -1 0
vn 1 0 0
vn -1 0 0
f 441 447 445
f 441 445 448
f 441 447 443
f 441 443 442
f 442 443 444
f 442 444 446
f 441 448 446
f 441 446 442 
f 447 445 444
f 447 444 443
f 448 445 444
f 448 444 446
v 1766 655 719
v 1732 655 719
v 1732 695 719
v 1732 695 759
v 1766 695 759
v 1732 655 759
v 1766 695 719
v 1766 655 759
vn 0 0 1
vn 0 0 -1
vn 0 1 0
vn 0 -1 0
vn 1 0 0
vn -1 0 0
f 449 455 453
f 449 453 456
f 449 455 451
f 449 451 450
f 450 451 452
f 450 452 454
f 449 456 454
f 449 454 450 
f 455 453 452
f 455 452 451
f 456 453 452
f 456 452 454
v 1692 655 719
v 1732 655 719
v 1732 783 719
v 1732 783 759
v 1692 783 759
v 1732 655 759
v 1692 783 719
v 1692 655 759
vn 0 0 1
vn 0 0 -1
vn 0 1 0
vn 0 -1 0
vn 1 0 0
vn -1 0 0
f 457 463 461
f 457 461 464
f 457 463 459
f 457 459 458
f 458 459 460
f 458 460 462
f 457 464 462
f 457 462 458 
f 463 461 460
f 463 460 459
f 464 461 460
f 464 460 462
v 1692 743 719
v 1732 743 719
v 1732 783 719
v 1732 783 262
v 1692 783 262
v 1732 743 262
v 1692 783 719
v 1692 743 262
vn 0 0 1
vn 0 0 -1
vn 0 1 0
vn 0 -1 0
vn 1 0 0
vn -1 0 0
f 465 471 469
f 465 469 472
f 465 471 467
f 465 467 466
f 466 467 468
f 466 468 470
f 465 472 470
f 465 470 466 
f 471 469 468
f 471 468 467
f 472 469 468
f 472 468 470
v 1692 743 222
v 1732 743 222
v 1732 797 222
v 1732 797 262
v 1692 797 262
v 1732 743 262
v 1692 797 222
v 1692 743 262
vn 0 0 1
vn 0 0 -1
vn 0 1 0
vn 0 -1 0
vn 1 0 0
vn -1 0 0
f 473 479 477
f 473 477 480
f 473 479 475
f 473 475 474
f 474 475 476
f 474 476 478
f 473 480 478
f 473 478 474 
f 479 477 476
f 479 476 475
f 480 477 476
f 480 476 478
v 1649 395 1497
v 1689 395 1497
v 1689 435 1497
v 1689 435 1549
v 1649 435 1549
v 1689 395 1549
v 1649 435 1497
v 1649 395 1549
vn 0 0 1
vn 0 0 -1
vn 0 1 0
vn 0 -1 0
vn 1 0 0
vn -1 0 0
f 481 487 485
f 481 485 488
f 481 487 483
f 481 483 482
f 482 483 484
f 482 484 486
f 481 488 486
f 481 486 482 
f 487 485 484
f 487 484 483
f 488 485 484
f 488 484 486
v 1649 395 1509
v 1689 395 1509
v 1689 435 1509
v 1689 435 1549
v 1649 435 1549
v 1689 395 1549
v 1649 435 1509
v 1649 395 1549
vn 0 0 1
vn 0 0 -1
vn 0 1 0
vn 0 -1 0
vn 1 0 0
vn -1 0 0
f 489 495 493
f 489 493 496
f 489 495 491
f 489 491 490
f 490 491 492
f 490 492 494
f 489 496 494
f 489 494 490 
f 495 493 492
f 495 492 491
f 496 493 492
f 496 492 494
v 1649 395 1509
v 1689 395 1509
v 1689 434 1509
v 1689 434 1549
v 1649 434 1549
v 1689 395 1549
v 1649 434 1509
v 1649 395 1549
vn 0 0 1
vn 0 0 -1
vn 0 1 0
vn 0 -1 0
vn 1 0 0
vn -1 0 0
f 497 503 501
f 497 501 504
f 497 503 499
f 497 499 498
f 498 499 500
f 498 500 502
f 497 504 502
f 497 502 498 
f 503 501 500
f 503 500 499
f 504 501 500
f 504 500 502
v 1649 394 1509
v 1689 394 1509
v 1689 434 1509
v 1689 434 1621
v 1649 434 1621
v 1689 394 1621
v 1649 434 1509
v 1649 394 1621
vn 0 0 1
vn 0 0 -1
vn 0 1 0
vn 0 -1 0
vn 1 0 0
vn -1 0 0
f 505 511 509
f 505 509 512
f 505 511 507
f 505 507 506
f 506 507 508
f 506 508 510
f 505 512 510
f 505 510 506 
f 511 509 508
f 511 508 507
f 512 509 508
f 512 508 510
v 1649 394 1581
v 1689 394 1581
v 1689 434 1581
v 1689 434 1633
v 1649 434 1633
v 1689 394 1633
v 1649 434 1581
v 1649 394 1633
vn 0 0 1
vn 0 0 -1
vn 0 1 0
vn 0 -1 0
vn 1 0 0
vn -1 0 0
f 513 519 517
f 513 517 520
f 513 519 515
f 513 515 514
f 514 515 516
f 514 516 518
f 513 520 518
f 513 518 514 
f 519 517 516
f 519 516 515
f 520 517 516
f 520 516 518
v 1225 395 1383
v 1280 395 1383
v 1280 435 1383
v 1280 435 1423
v 1225 435 1423
v 1280 395 1423
v 1225 435 1383
v 1225 395 1423
vn 0 0 1
vn 0 0 -1
vn 0 1 0
vn 0 -1 0
vn 1 0 0
vn -1 0 0
f 521 527 525
f 521 525 528
f 521 527 523
f 521 523 522
f 522 523 524
f 522 524 526
f 521 528 526
f 521 526 522 
f 527 525 524
f 527 524 523
f 528 525 524
f 528 524 526
v 1240 395 1383
v 1375 395 1383
v 1375 435 1383
v 1375 435 1423
v 1240 435 1423
v 1375 395 1423
v 1240 435 1383
v 1240 395 1423
vn 0 0 1
vn 0 0 -1
vn 0 1 0
vn 0 -1 0
vn 1 0 0
vn -1 0 0
f 529 535 533
f 529 533 536
f 529 535 531
f 529 531 530
f 530 531 532
f 530 532 534
f 529 536 534
f 529 534 530 
f 535 533 532
f 535 532 531
f 536 533 532
f 536 532 534
v 1335 395 1383
v 1375 395 1383
v 1375 434 1383
v 1375 434 1423
v 1335 434 1423
v 1375 395 1423
v 1335 434 1383
v 1335 395 1423
vn 0 0 1
vn 0 0 -1
vn 0 1 0
vn 0 -1 0
vn 1 0 0
vn -1 0 0
f 537 543 541
f 537 541 544
f 537 543 539
f 537 539 538
f 538 539 540
f 538 540 542
f 537 544 542
f 537 542 538 
f 543 541 540
f 543 540 539
f 544 541 540
f 544 540 542
v 1335 394 1383
v 1375 394 1383
v 1375 434 1383
v 1375 434 1820
v 1335 434 1820
v 1375 394 1820
v 1335 434 1383
v 1335 394 1820
vn 0 0 1
vn 0 0 -1
vn 0 1 0
vn 0 -1 0
vn 1 0 0
vn -1 0 0
f 545 551 549
f 545 549 552
f 545 551 547
f 545 547 546
f 546 547 548
f 546 548 550
f 545 552 550
f 545 550 546 
f 551 549 548
f 551 548 547
f 552 549 548
f 552 548 550
v 1335 394 1780
v 1390 394 1780
v 1390 434 1780
v 1390 434 1820
v 1335 434 1820
v 1390 394 1820
v 1335 434 1780
v 1335 394 1820
vn 0 0 1
vn 0 0 -1
vn 0 1 0
vn 0 -1 0
vn 1 0 0
vn -1 0 0
f 553 559 557
f 553 557 560
f 553 559 555
f 553 555 554
f 554 555 556
f 554 556 558
f 553 560 558
f 553 558 554 
f 559 557 556
f 559 556 555
f 560 557 556
f 560 556 558
v 1664 1041 1416
v 1704 1041 1416
v 1704 1081 1416
v 1704 1081 1468
v 1664 1081 1468
v 1704 1041 1468
v 1664 1081 1416
v 1664 1041 1468
vn 0 0 1
vn 0 0 -1
vn 0 1 0
vn 0 -1 0
vn 1 0 0
vn -1 0 0
f 561 567 565
f 561 565 568
f 561 567 563
f 561 563 562
f 562 563 564
f 562 564 566
f 561 568 566
f 561 566 562 
f 567 565 564
f 567 564 563
f 568 565 564
f 568 564 566
v 1664 1041 1428
v 1704 1041 1428
v 1704 1081 1428
v 1704 1081 1468
v 1664 1081 1468
v 1704 1041 1468
v 1664 1081 1428
v 1664 1041 1468
vn 0 0 1
vn 0 0 -1
vn 0 1 0
vn 0 -1 0
vn 1 0 0
vn -1 0 0
f 569 575 573
f 569 573 576
f 569 575 571
f 569 571 570
f 570 571 572
f 570 572 574
f 569 576 574
f 569 574 570 
f 575 573 572
f 575 572 571
f 576 573 572
f 576 572 574
v 1664 1041 1428
v 1704 1041 1428
v 1704 1080 1428
v 1704 1080 1468
v 1664 1080 1468
v 1704 1041 1468
v 1664 1080 1428
v 1664 1041 1468
vn 0 0 1
vn 0 0 -1
vn 0 1 0
vn 0 -1 0
vn 1 0 0
vn -1 0 0
f 577 583 581
f 577 581 584
f 577 583 579
f 577 579 578
f 578 579 580
f 578 580 582
f 577 584 582
f 577 582 578 
f 583 581 580
f 583 580 579
f 584 581 580
f 584 580 582
v 1664 1040 1428
v 1704 1040 1428
v 1704 1080 1428
v 1704 1080 1543
v 1664 1080 1543
v 1704 1040 1543
v 1664 1080 1428
v 1664 1040 1543
vn 0 0 1
vn 0 0 -1
vn 0 1 0
vn 0 -1 0
vn 1 0 0
vn -1 0 0
f 585 591 589
f 585 589 592
f 585 591 587
f 585 587 586
f 586 587 588
f 586 588 590
f 585 592 590
f 585 590 586 
f 591 589 588
f 591 588 587
f 592 589 588
f 592 588 590
v 1664 1040 1503
v 1704 1040 1503
v 1704 1080 1503
v 1704 1080 1555
v 1664 1080 1555
v 1704 1040 1555
v 1664 1080 1503
v 1664 1040 1555
vn 0 0 1
vn 0 0 -1
vn 0 1 0
vn 0 -1 0
vn 1 0 0
vn -1 0 0
f 593 599 597
f 593 597 600
f 593 599 595
f 593 595 594
f 594 595 596
f 594 596 598
f 593 600 598
f 593 598 594 
f 599 597 596
f 599 596 595
f 600 597 596
f 600 596 598
v 1246 1041 1860
v 1303 1041 1860
v 1303 1081 1860
v 1303 1081 1900
v 1246 1081 1900
v 1303 1041 1900
v 1246 1081 1860
v 1246 1041 1900
vn 0 0 1
vn 0 0 -1
vn 0 1 0
vn 0 -1 0
vn 1 0 0
vn -1 0 0
f 601 607 605
f 601 605 608
f 601 607 603
f 601 603 602
f 602 603 604
f 602 604 606
f 601 608 606
f 601 606 602 
f 607 605 604
f 607 604 603
f 608 605 604
f 608 604 606
v 1263 1041 1860
v 1406 1041 1860
v 1406 1081 1860
v 1406 1081 1900
v 1263 1081 1900
v 1406 1041 1900
v 1263 1081 1860
v 1263 1041 1900
vn 0 0 1
vn 0 0 -1
vn 0 1 0
vn 0 -1 0
vn 1 0 0
vn -1 0 0
f 609 615 613
f 609 613 616
f 609 615 611
f 609 611 610
f 610 611 612
f 610 612 614
f 609 616 614
f 609 614 610 
f 615 613 612
f 615 612 611
f 616 613 612
f 616 612 614
v 1366 1041 1860
v 1406 1041 1860
v 1406 1080 1860
v 1406 1080 1900
v 1366 1080 1900
v 1406 1041 1900
v 1366 1080 1860
v 1366 1041 1900
vn 0 0 1
vn 0 0 -1
vn 0 1 0
vn 0 -1 0
vn 1 0 0
vn -1 0 0
f 617 623 621
f 617 621 624
f 617 623 619
f 617 619 618
f 618 619 620
f 618 620 622
f 617 624 622
f 617 622 618 
f 623 621 620
f 623 620 619
f 624 621 620
f 624 620 622
v 1366 1040 1860
v 1406 1040 1860
v 1406 1080 1860
v 1406 1080 1785
v 1366 1080 1785
v 1406 1040 1785
v 1366 1080 1860
v 1366 1040 1785
vn 0 0 1
vn 0 0 -1
vn 0 1 0
vn 0 -1 0
vn 1 0 0
vn -1 0 0
f 625 631 629
f 625 629 632
f 625 631 627
f 625 627 626
f 626 627 628
f 626 628 630
f 625 632 630
f 625 630 626 
f 631 629 628
f 631 628 627
f 632 629 628
f 632 628 630
v 1366 1040 1745
v 1423 1040 1745
v 1423 1080 1745
v 1423 1080 1785
v 1366 1080 1785
v 1423 1040 1785
v 1366 1080 1745
v 1366 1040 1785
vn 0 0 1
vn 0 0 -1
vn 0 1 0
vn 0 -1 0
vn 1 0 0
vn -1 0 0
f 633 639 637
f 633 637 640
f 633 639 635
f 633 635 634
f 634 635 636
f 634 636 638
f 633 640 638
f 633 638 634 
f 639 637 636
f 639 636 635
f 640 637 636
f 640 636 638
v 1649 737 1780
v 1689 737 1780
v 1689 791 1780
v 1689 791 1820
v 1649 791 1820
v 1689 737 1820
v 1649 791 1780
v 1649 737 1820
vn 0 0 1
vn 0 0 -1
vn 0 1 0
vn 0 -1 0
vn 1 0 0
vn -1 0 0
f 641 647 645
f 641 645 648
f 641 647 643
f 641 643 642
f 642 643 644
f 642 644 646
f 641 648 646
f 641 646 642 
f 647 645 644
f 647 644 643
f 648 645 644
f 648 644 646
v 1649 751 1780
v 1704 751 1780
v 1704 791 1780
v 1704 791 1820
v 1649 791 1820
v 1704 751 1820
v 1649 791 1780
v 1649 751 1820
vn 0 0 1
vn 0 0 -1
vn 0 1 0
vn 0 -1 0
vn 1 0 0
vn -1 0 0
f 649 655 653
f 649 653 656
f 649 655 651
f 649 651 650
f 650 651 652
f 650 652 654
f 649 656 654
f 649 654 650 
f 655 653 652
f 655 652 651
f 656 653 652
f 656 652 654
v 1664 751 1780
v 1704 751 1780
v 1704 880 1780
v 1704 880 1820
v 1664 880 1820
v 1704 751 1820
v 1664 880 1780
v 1664 751 1820
vn 0 0 1
vn 0 0 -1
vn 0 1 0
vn 0 -1 0
vn 1 0 0
vn -1 0 0
f 657 663 661
f 657 661 664
f 657 663 659
f 657 659 658
f 658 659 660
f 658 660 662
f 657 664 662
f 657 662 658 
f 663 661 660
f 663 660 659
f 664 661 660
f 664 660 662
v 1664 840 1780
v 1704 840 1780
v 1704 880 1780
v 1704 880 1785
v 1664 880 1785
v 1704 840 1785
v 1664 880 1780
v 1664 840 1785
vn 0 0 1
vn 0 0 -1
vn 0 1 0
vn 0 -1 0
vn 1 0 0
vn -1 0 0
f 665 671 669
f 665 669 672
f 665 671 667
f 665 667 666
f 666 667 668
f 666 668 670
f 665 672 670
f 665 670 666 
f 671 669 668
f 671 668 667
f 672 669 668
f 672 668 670
v 1664 840 1745
v 1704 840 1745
v 1704 894 1745
v 1704 894 1785
v 1664 894 1785
v 1704 840 1785
v 1664 894 1745
v 1664 840 1785
vn 0 0 1
vn 0 0 -1
vn 0 1 0
vn 0 -1 0
vn 1 0 0
vn -1 0 0
f 673 679 677
f 673 677 680
f 673 679 675
f 673 675 674
f 674 675 676
f 674 676 678
f 673 680 678
f 673 678 674 
f 679 677 676
f 679 676 675
f 680 677 676
f 680 676 678
v 1766 347 1032
v 1806 347 1032
v 1806 387 1032
v 1806 387 1085
v 1766 387 1085
v 1806 347 1085
v 1766 387 1032
v 1766 347 1085
vn 0 0 1
vn 0 0 -1
vn 0 1 0
vn 0 -1 0
vn 1 0 0
vn -1 0 0
f 681 687 685
f 681 685 688
f 681 687 683
f 681 683 682
f 682 683 684
f 682 684 686
f 681 688 686
f 681 686 682 
f 687 685 684
f 687 684 683
f 688 685 684
f 688 684 686
v 1766 347 1045
v 1704 347 1045
v 1704 387 1045
v 1704 387 1085
v 1766 387 1085
v 1704 347 1085
v 1766 387 1045
v 1766 347 1085
vn 0 0 1
vn 0 0 -1
vn 0 1 0
vn 0 -1 0
vn 1 0 0
vn -1 0 0
f 689 695 693
f 689 693 696
f 689 695 691
f 689 691 690
f 690 691 692
f 690 692 694
f 689 696 694
f 689 694 690 
f 695 693 692
f 695 692 691
f 696 693 692
f 696 692 694
v 1664 347 1045
v 1704 347 1045
v 1704 1080 1045
v 1704 1080 1085
v 1664 1080 1085
v 1704 347 1085
v 1664 1080 1045
v 1664 347 1085
vn 0 0 1
vn 0 0 -1
vn 0 1 0
vn 0 -1 0
vn 1 0 0
vn -1 0 0
f 697 703 701
f 697 701 704
f 697 703 699
f 697 699 698
f 698 699 700
f 698 700 702
f 697 704 702
f 697 702 698 
f 703 701 700
f 703 700 699
f 704 701 700
f 704 700 702
v 1664 1040 1045
v 1704 1040 1045
v 1704 1080 1045
v 1704 1080 1164
v 1664 1080 1164
v 1704 1040 1164
v 1664 1080 1045
v 1664 1040 1164
vn 0 0 1
vn 0 0 -1
vn 0 1 0
vn 0 -1 0
vn 1 0 0
vn -1 0 0
f 705 711 709
f 705 709 712
f 705 711 707
f 705 707 706
f 706 707 708
f 706 708 710
f 705 712 710
f 705 710 706 
f 711 709 708
f 711 708 707
f 712 709 708
f 712 708 710
v 1664 1040 1124
v 1704 1040 1124
v 1704 1080 1124
v 1704 1080 1177
v 1664 1080 1177
v 1704 1040 1177
v 1664 1080 1124
v 1664 1040 1177
vn 0 0 1
vn 0 0 -1
vn 0 1 0
vn 0 -1 0
vn 1 0 0
vn -1 0 0
f 713 719 717
f 713 717 720
f 713 719 715
f 713 715 714
f 714 715 716
f 714 716 718
f 713 720 718
f 713 718 714 
f 719 717 716
f 719 716 715
f 720 717 716
f 720 716 718
v 778 890 1616
v 831 890 1616
v 831 930 1616
v 831 930 1656
v 778 930 1656
v 831 890 1656
v 778 930 1616
v 778 890 1656
vn 0 0 1
vn 0 0 -1
vn 0 1 0
vn 0 -1 0
vn 1 0 0
vn -1 0 0
f 721 727 725
f 721 725 728
f 721 727 723
f 721 723 722
f 722 723 724
f 722 724 726
f 721 728 726
f 721 726 722 
f 727 725 724
f 727 724 723
f 728 725 724
f 728 724 726
v 791 890 1616
v 911 890 1616
v 911 930 1616
v 911 930 1656
v 791 930 1656
v 911 890 1656
v 791 930 1616
v 791 890 1656
vn 0 0 1
vn 0 0 -1
vn 0 1 0
vn 0 -1 0
vn 1 0 0
vn -1 0 0
f 729 735 733
f 729 733 736
f 729 735 731
f 729 731 730
f 730 731 732
f 730 732 734
f 729 736 734
f 729 734 730 
f 735 733 732
f 735 732 731
f 736 733 732
f 736 732 734
v 871 890 1616
v 911 890 1616
v 911 1080 1616
v 911 1080 1656
v 871 1080 1656
v 911 890 1656
v 871 1080 1616
v 871 890 1656
vn 0 0 1
vn 0 0 -1
vn 0 1 0
vn 0 -1 0
vn 1 0 0
vn -1 0 0
f 737 743 741
f 737 741 744
f 737 743 739
f 737 739 738
f 738 739 740
f 738 740 742
f 737 744 742
f 737 742 738 
f 743 741 740
f 743 740 739
f 744 741 740
f 744 740 742
v 871 1040 1616
v 911 1040 1616
v 911 1080 1616
v 911 1080 1900
v 871 1080 1900
v 911 1040 1900
v 871 1080 1616
v 871 1040 1900
vn 0 0 1
vn 0 0 -1
vn 0 1 0
vn 0 -1 0
vn 1 0 0
vn -1 0 0
f 745 751 749
f 745 749 752
f 745 751 747
f 745 747 746
f 746 747 748
f 746 748 750
f 745 752 750
f 745 750 746 
f 751 749 748
f 751 748 747
f 752 749 748
f 752 748 750
v 871 1040 1860
v 924 1040 1860
v 924 1080 1860
v 924 1080 1900
v 871 1080 1900
v 924 1040 1900
v 871 1080 1860
v 871 1040 1900
vn 0 0 1
vn 0 0 -1
vn 0 1 0
vn 0 -1 0
vn 1 0 0
vn -1 0 0
f 753 759 757
f 753 757 760
f 753 759 755
f 753 755 754
f 754 755 756
f 754 756 758
f 753 760 758
f 753 758 754 
f 759 757 756
f 759 756 755
f 760 757 756
f 760 756 758
v 211 1496 608
v 251 1496 608
v 251 1546 608
v 251 1546 648
v 211 1546 648
v 251 1496 648
v 211 1546 608
v 211 1496 648
vn 0 0 1
vn 0 0 -1
vn 0 1 0
vn 0 -1 0
vn 1 0 0
vn -1 0 0
f 761 767 765
f 761 765 768
f 761 767 763
f 761 763 762
f 762 763 764
f 762 764 766
f 761 768 766
f 761 766 762 
f 767 765 764
f 767 764 763
f 768 765 764
f 768 764 766
v 211 1506 608
v 250 1506 608
v 250 1546 608
v 250 1546 648
v 211 1546 648
v 250 1506 648
v 211 1546 608
v 211 1506 648
vn 0 0 1
vn 0 0 -1
vn 0 1 0
vn 0 -1 0
vn 1 0 0
vn -1 0 0
f 769 775 773
f 769 773 776
f 769 775 771
f 769 771 770
f 770 771 772
f 770 772 774
f 769 776 774
f 769 774 770 
f 775 773 772
f 775 772 771
f 776 773 772
f 776 772 774
v 210 1506 608
v 250 1506 608
v 250 1611 608
v 250 1611 648
v 210 1611 648
v 250 1506 648
v 210 1611 608
v 210 1506 648
vn 0 0 1
vn 0 0 -1
vn 0 1 0
vn 0 -1 0
vn 1 0 0
vn -1 0 0
f 777 783 781
f 777 781 784
f 777 783 779
f 777 779 778
f 778 779 780
f 778 780 782
f 777 784 782
f 777 782 778 
f 783 781 780
f 783 780 779
f 784 781 780
f 784 780 782
v 210 1571 608
v 250 1571 608
v 250 1611 608
v 250 1611 648
v 210 1611 648
v 250 1571 648
v 210 1611 608
v 210 1571 648
vn 0 0 1
vn 0 0 -1
vn 0 1 0
vn 0 -1 0
vn 1 0 0
vn -1 0 0
f 785 791 789
f 785 789 792
f 785 791 787
f 785 787 786
f 786 787 788
f 786 788 790
f 785 792 790
f 785 790 786 
f 791 789 788
f 791 788 787
f 792 789 788
f 792 788 790
v 210 1571 608
v 250 1571 608
v 250 1621 608
v 250 1621 648
v 210 1621 648
v 250 1571 648
v 210 1621 608
v 210 1571 648
vn 0 0 1
vn 0 0 -1
vn 0 1 0
vn 0 -1 0
vn 1 0 0
vn -1 0 0
f 793 799 797
f 793 797 800
f 793 799 795
f 793 795 794
f 794 795 796
f 794 796 798
f 793 800 798
f 793 798 794 
f 799 797 796
f 799 796 795
f 800 797 796
f 800 796 798
v 796 1850 256
v 836 1850 256
v 836 1890 256
v 836 1890 309
v 796 1890 309
v 836 1850 309
v 796 1890 256
v 796 1850 309
vn 0 0 1
vn 0 0 -1
vn 0 1 0
vn 0 -1 0
vn 1 0 0
vn -1 0 0
f 801 807 805
f 801 805 808
f 801 807 803
f 801 803 802
f 802 803 804
f 802 804 806
f 801 808 806
f 801 806 802 
f 807 805 804
f 807 804 803
f 808 805 804
f 808 804 806
v 796 1850 269
v 836 1850 269
v 836 1890 269
v 836 1890 309
v 796 1890 309
v 836 1850 309
v 796 1890 269
v 796 1850 309
vn 0 0 1
vn 0 0 -1
vn 0 1 0
vn 0 -1 0
vn 1 0 0
vn -1 0 0
f 809 815 813
f 809 813 816
f 809 815 811
f 809 811 810
f 810 811 812
f 810 812 814
f 809 816 814
f 809 814 810 
f 815 813 812
f 815 812 811
f 816 813 812
f 816 812 814
v 796 1850 269
v 836 1850 269
v 836 1820 269
v 836 1820 309
v 796 1820 309
v 836 1850 309
v 796 1820 269
v 796 1850 309
vn 0 0 1
vn 0 0 -1
vn 0 1 0
vn 0 -1 0
vn 1 0 0
vn -1 0 0
f 817 823 821
f 817 821 824
f 817 823 819
f 817 819 818
f 818 819 820
f 818 820 822
f 817 824 822
f 817 822 818 
f 823 821 820
f 823 820 819
f 824 821 820
f 824 820 822
v 796 1780 269
v 836 1780 269
v 836 1820 269
v 836 1820 390
v 796 1820 390
v 836 1780 390
v 796 1820 269
v 796 1780 390
vn 0 0 1
vn 0 0 -1
vn 0 1 0
vn 0 -1 0
vn 1 0 0
vn -1 0 0
f 825 831 829
f 825 829 832
f 825 831 827
f 825 827 826
f 826 827 828
f 826 828 830
f 825 832 830
f 825 830 826 
f 831 829 828
f 831 828 827
f 832 829 828
f 832 828 830
v 796 1780 350
v 836 1780 350
v 836 1820 350
v 836 1820 403
v 796 1820 403
v 836 1780 403
v 796 1820 350
v 796 1780 403
vn 0 0 1
vn 0 0 -1
vn 0 1 0
vn 0 -1 0
vn 1 0 0
vn -1 0 0
f 833 839 837
f 833 837 840
f 833 839 835
f 833 835 834
f 834 835 836
f 834 836 838
f 833 840 838
f 833 838 834 
f 839 837 836
f 839 836 835
f 840 837 836
f 840 836 838
v 403 1777 608
v 458 1777 608
v 458 1817 608
v 458 1817 648
v 403 1817 648
v 458 1777 648
v 403 1817 608
v 403 1777 648
vn 0 0 1
vn 0 0 -1
vn 0 1 0
vn 0 -1 0
vn 1 0 0
vn -1 0 0
f 841 847 845
f 841 845 848
f 841 847 843
f 841 843 842
f 842 843 844
f 842 844 846
f 841 848 846
f 841 846 842 
f 847 845 844
f 847 844 843
f 848 845 844
f 848 844 846
v 418 1777 608
v 548 1777 608
v 548 1817 608
v 548 1817 648
v 418 1817 648
v 548 1777 648
v 418 1817 608
v 418 1777 648
vn 0 0 1
vn 0 0 -1
vn 0 1 0
vn 0 -1 0
vn 1 0 0
vn -1 0 0
f 849 855 853
f 849 853 856
f 849 855 851
f 849 851 850
f 850 851 852
f 850 852 854
f 849 856 854
f 849 854 850 
f 855 853 852
f 855 852 851
f 856 853 852
f 856 852 854
v 508 1777 608
v 548 1777 608
v 548 1820 608
v 548 1820 648
v 508 1820 648
v 548 1777 648
v 508 1820 608
v 508 1777 648
vn 0 0 1
vn 0 0 -1
vn 0 1 0
vn 0 -1 0
vn 1 0 0
vn -1 0 0
f 857 863 861
f 857 861 864
f 857 863 859
f 857 859 858
f 858 859 860
f 858 860 862
f 857 864 862
f 857 862 858 
f 863 861 860
f 863 860 859
f 864 861 860
f 864 860 862
v 508 1780 608
v 548 1780 608
v 548 1820 608
v 548 1820 629
v 508 1820 629
v 548 1780 629
v 508 1820 608
v 508 1780 629
vn 0 0 1
vn 0 0 -1
vn 0 1 0
vn 0 -1 0
vn 1 0 0
vn -1 0 0
f 865 871 869
f 865 869 872
f 865 871 867
f 865 867 866
f 866 867 868
f 866 868 870
f 865 872 870
f 865 870 866 
f 871 869 868
f 871 868 867
f 872 869 868
f 872 868 870
v 508 1780 589
v 563 1780 589
v 563 1820 589
v 563 1820 629
v 508 1820 629
v 563 1780 629
v 508 1820 589
v 508 1780 629
vn 0 0 1
vn 0 0 -1
vn 0 1 0
vn 0 -1 0
vn 1 0 0
vn -1 0 0
f 873 879 877
f 873 877 880
f 873 879 875
f 873 875 874
f 874 875 876
f 874 876 878
f 873 880 878
f 873 878 874 
f 879 877 876
f 879 876 875
f 880 877 876
f 880 876 878
v 194 1526 1675
v 234 1526 1675
v 234 1575 1675
v 234 1575 1715
v 194 1575 1715
v 234 1526 1715
v 194 1575 1675
v 194 1526 1715
vn 0 0 1
vn 0 0 -1
vn 0 1 0
vn 0 -1 0
vn 1 0 0
vn -1 0 0
f 881 887 885
f 881 885 888
f 881 887 883
f 881 883 882
f 882 883 884
f 882 884 886
f 881 888 886
f 881 886 882 
f 887 885 884
f 887 884 883
f 888 885 884
f 888 884 886
v 194 1535 1675
v 233 1535 1675
v 233 1575 1675
v 233 1575 1715
v 194 1575 1715
v 233 1535 1715
v 194 1575 1675
v 194 1535 1715
vn 0 0 1
vn 0 0 -1
vn 0 1 0
vn 0 -1 0
vn 1 0 0
vn -1 0 0
f 889 895 893
f 889 893 896
f 889 895 891
f 889 891 890
f 890 891 892
f 890 892 894
f 889 896 894
f 889 894 890 
f 895 893 892
f 895 892 891
f 896 893 892
f 896 892 894
v 193 1535 1675
v 233 1535 1675
v 233 1633 1675
v 233 1633 1715
v 193 1633 1715
v 233 1535 1715
v 193 1633 1675
v 193 1535 1715
vn 0 0 1
vn 0 0 -1
vn 0 1 0
vn 0 -1 0
vn 1 0 0
vn -1 0 0
f 897 903 901
f 897 901 904
f 897 903 899
f 897 899 898
f 898 899 900
f 898 900 902
f 897 904 902
f 897 902 898 
f 903 901 900
f 903 900 899
f 904 901 900
f 904 900 902
v 193 1593 1675
v 233 1593 1675
v 233 1633 1675
v 233 1633 1714
v 193 1633 1714
v 233 1593 1714
v 193 1633 1675
v 193 1593 1714
vn 0 0 1
vn 0 0 -1
vn 0 1 0
vn 0 -1 0
vn 1 0 0
vn -1 0 0
f 905 911 909
f 905 909 912
f 905 911 907
f 905 907 906
f 906 907 908
f 906 908 910
f 905 912 910
f 905 910 906 
f 911 909 908
f 911 908 907
f 912 909 908
f 912 908 910
v 193 1593 1674
v 233 1593 1674
v 233 1642 1674
v 233 1642 1714
v 193 1642 1714
v 233 1593 1714
v 193 1642 1674
v 193 1593 1714
vn 0 0 1
vn 0 0 -1
vn 0 1 0
vn 0 -1 0
vn 1 0 0
vn -1 0 0
f 913 919 917
f 913 917 920
f 913 919 915
f 913 915 914
f 914 915 916
f 914 916 918
f 913 920 918
f 913 918 914 
f 919 917 916
f 919 916 915
f 920 917 916
f 920 916 918
v 194 1859 1276
v 234 1859 1276
v 234 1899 1276
v 234 1899 1329
v 194 1899 1329
v 234 1859 1329
v 194 1899 1276
v 194 1859 1329
vn 0 0 1
vn 0 0 -1
vn 0 1 0
vn 0 -1 0
vn 1 0 0
vn -1 0 0
f 921 927 925
f 921 925 928
f 921 927 923
f 921 923 922
f 922 923 924
f 922 924 926
f 921 928 926
f 921 926 922 
f 927 925 924
f 927 924 923
f 928 925 924
f 928 924 926
v 194 1859 1289
v 233 1859 1289
v 233 1899 1289
v 233 1899 1329
v 194 1899 1329
v 233 1859 1329
v 194 1899 1289
v 194 1859 1329
vn 0 0 1
vn 0 0 -1
vn 0 1 0
vn 0 -1 0
vn 1 0 0
vn -1 0 0
f 929 935 933
f 929 933 936
f 929 935 931
f 929 931 930
f 930 931 932
f 930 932 934
f 929 936 934
f 929 934 930 
f 935 933 932
f 935 932 931
f 936 933 932
f 936 932 934
v 193 1859 1289
v 233 1859 1289
v 233 1835 1289
v 233 1835 1329
v 193 1835 1329
v 233 1859 1329
v 193 1835 1289
v 193 1859 1329
vn 0 0 1
vn 0 0 -1
vn 0 1 0
vn 0 -1 0
vn 1 0 0
vn -1 0 0
f 937 943 941
f 937 941 944
f 937 943 939
f 937 939 938
f 938 939 940
f 938 940 942
f 937 944 942
f 937 942 938 
f 943 941 940
f 943 940 939
f 944 941 940
f 944 940 942
v 193 1795 1289
v 233 1795 1289
v 233 1835 1289
v 233 1835 1410
v 193 1835 1410
v 233 1795 1410
v 193 1835 1289
v 193 1795 1410
vn 0 0 1
vn 0 0 -1
vn 0 1 0
vn 0 -1 0
vn 1 0 0
vn -1 0 0
f 945 951 949
f 945 949 952
f 945 951 947
f 945 947 946
f 946 947 948
f 946 948 950
f 945 952 950
f 945 950 946 
f 951 949 948
f 951 948 947
f 952 949 948
f 952 948 950
v 193 1795 1370
v 233 1795 1370
v 233 1835 1370
v 233 1835 1423
v 193 1835 1423
v 233 1795 1423
v 193 1835 1370
v 193 1795 1423
vn 0 0 1
vn 0 0 -1
vn 0 1 0
vn 0 -1 0
vn 1 0 0
vn -1 0 0
f 953 959 957
f 953 957 960
f 953 959 955
f 953 955 954
f 954 955 956
f 954 956 958
f 953 960 958
f 953 958 954 
f 959 957 956
f 959 956 955
f 960 957 956
f 960 956 958
v 373 1795 1675
v 429 1795 1675
v 429 1835 1675
v 429 1835 1715
v 373 1835 1715
v 429 1795 1715
v 373 1835 1675
v 373 1795 1715
vn 0 0 1
vn 0 0 -1
vn 0 1 0
vn 0 -1 0
vn 1 0 0
vn -1 0 0
f 961 967 965
f 961 965 968
f 961 967 963
f 961 963 962
f 962 963 964
f 962 964 966
f 961 968 966
f 961 966 962 
f 967 965 964
f 967 964 963
f 968 965 964
f 968 964 966
v 389 1795 1675
v 525 1795 1675
v 525 1835 1675
v 525 1835 1715
v 389 1835 1715
v 525 1795 1715
v 389 1835 1675
v 389 1795 1715
vn 0 0 1
vn 0 0 -1
vn 0 1 0
vn 0 -1 0
vn 1 0 0
vn -1 0 0
f 969 975 973
f 969 973 976
f 969 975 971
f 969 971 970
f 970 971 972
f 970 972 974
f 969 976 974
f 969 974 970 
f 975 973 972
f 975 972 971
f 976 973 972
f 976 972 974
v 485 1795 1675
v 525 1795 1675
v 525 1937 1675
v 525 1937 1715
v 485 1937 1715
v 525 1795 1715
v 485 1937 1675
v 485 1795 1715
vn 0 0 1
vn 0 0 -1
vn 0 1 0
vn 0 -1 0
vn 1 0 0
vn -1 0 0
f 977 983 981
f 977 981 984
f 977 983 979
f 977 979 978
f 978 979 980
f 978 980 982
f 977 984 982
f 977 982 978 
f 983 981 980
f 983 980 979
f 984 981 980
f 984 980 982
v 485 1897 1675
v 525 1897 1675
v 525 1937 1675
v 525 1937 1801
v 485 1937 1801
v 525 1897 1801
v 485 1937 1675
v 485 1897 1801
vn 0 0 1
vn 0 0 -1
vn 0 1 0
vn 0 -1 0
vn 1 0 0
vn -1 0 0
f 985 991 989
f 985 989 992
f 985 991 987
f 985 987 986
f 986 987 988
f 986 988 990
f 985 992 990
f 985 990 986 
f 991 989 988
f 991 988 987
f 992 989 988
f 992 988 990
v 485 1897 1761
v 541 1897 1761
v 541 1937 1761
v 541 1937 1801
v 485 1937 1801
v 541 1897 1801
v 485 1937 1761
v 485 1897 1801
vn 0 0 1
vn 0 0 -1
vn 0 1 0
vn 0 -1 0
vn 1 0 0
vn -1 0 0
f 993 999 997
f 993 997 1000
f 993 999 995
f 993 995 994
f 994 995 996
f 994 996 998
f 993 1000 998
f 993 998 994 
f 999 997 996
f 999 996 995
f 1000 997 996
f 1000 996 998
v 796 1780 814
v 836 1780 814
v 836 1820 814
v 836 1820 868
v 796 1820 868
v 836 1780 868
v 796 1820 814
v 796 1780 868
vn 0 0 1
vn 0 0 -1
vn 0 1 0
vn 0 -1 0
vn 1 0 0
vn -1 0 0
f 1001 1007 1005
f 1001 1005 1008
f 1001 1007 1003
f 1001 1003 1002
f 1002 1003 1004
f 1002 1004 1006
f 1001 1008 1006
f 1001 1006 1002 
f 1007 1005 1004
f 1007 1004 1003
f 1008 1005 1004
f 1008 1004 1006
v 796 1780 828
v 233 1780 828
v 233 1820 828
v 233 1820 868
v 796 1820 868
v 233 1780 868
v 796 1820 828
v 796 1780 868
vn 0 0 1
vn 0 0 -1
vn 0 1 0
vn 0 -1 0
vn 1 0 0
vn -1 0 0
f 1009 1015 1013
f 1009 1013 1016
f 1009 1015 1011
f 1009 1011 1010
f 1010 1011 1012
f 1010 1012 1014
f 1009 1016 1014
f 1009 1014 1010 
f 1015 1013 1012
f 1015 1012 1011
f 1016 1013 1012
f 1016 1012 1014
v 193 1780 828
v 233 1780 828
v 233 1898 828
v 233 1898 868
v 193 1898 868
v 233 1780 868
v 193 1898 828
v 193 1780 868
vn 0 0 1
vn 0 0 -1
vn 0 1 0
vn 0 -1 0
vn 1 0 0
vn -1 0 0
f 1017 1023 1021
f 1017 1021 1024
f 1017 1023 1019
f 1017 1019 1018
f 1018 1019 1020
f 1018 1020 1022
f 1017 1024 1022
f 1017 1022 1018 
f 1023 1021 1020
f 1023 1020 1019
f 1024 1021 1020
f 1024 1020 1022
v 193 1858 828
v 233 1858 828
v 233 1898 828
v 233 1898 953
v 193 1898 953
v 233 1858 953
v 193 1898 828
v 193 1858 953
vn 0 0 1
vn 0 0 -1
vn 0 1 0
vn 0 -1 0
vn 1 0 0
vn -1 0 0
f 1025 1031 1029
f 1025 1029 1032
f 1025 1031 1027
f 1025 1027 1026
f 1026 1027 1028
f 1026 1028 1030
f 1025 1032 1030
f 1025 1030 1026 
f 1031 1029 1028
f 1031 1028 1027
f 1032 1029 1028
f 1032 1028 1030
v 193 1858 913
v 233 1858 913
v 233 1898 913
v 233 1898 967
v 193 1898 967
v 233 1858 967
v 193 1898 913
v 193 1858 967
vn 0 0 1
vn 0 0 -1
vn 0 1 0
vn 0 -1 0
vn 1 0 0
vn -1 0 0
f 1033 1039 1037
f 1033 1037 1040
f 1033 1039 1035
f 1033 1035 1034
f 1034 1035 1036
f 1034 1036 1038
f 1033 1040 1038
f 1033 1038 1034 
f 1039 1037 1036
f 1039 1036 1035
f 1040 1037 1036
f 1040 1036 1038
v 1424 1458 435
v 1464 1458 435
v 1464 1498 435
v 1464 1498 486
v 1424 1498 486
v 1464 1458 486
v 1424 1498 435
v 1424 1458 486
vn 0 0 1
vn 0 0 -1
vn 0 1 0
vn 0 -1 0
vn 1 0 0
vn -1 0 0
f 1041 1047 1045
f 1041 1045 1048
f 1041 1047 1043
f 1041 1043 1042
f 1042 1043 1044
f 1042 1044 1046
f 1041 1048 1046
f 1041 1046 1042 
f 1047 1045 1044
f 1047 1044 1043
f 1048 1045 1044
f 1048 1044 1046
v 1424 1458 446
v 1463 1458 446
v 1463 1498 446
v 1463 1498 486
v 1424 1498 486
v 1463 1458 486
v 1424 1498 446
v 1424 1458 486
vn 0 0 1
vn 0 0 -1
vn 0 1 0
vn 0 -1 0
vn 1 0 0
vn -1 0 0
f 1049 1055 1053
f 1049 1053 1056
f 1049 1055 1051
f 1049 1051 1050
f 1050 1051 1052
f 1050 1052 1054
f 1049 1056 1054
f 1049 1054 1050 
f 1055 1053 1052
f 1055 1052 1051
f 1056 1053 1052
f 1056 1052 1054
v 1423 1458 446
v 1463 1458 446
v 1463 1905 446
v 1463 1905 486
v 1423 1905 486
v 1463 1458 486
v 1423 1905 446
v 1423 1458 486
vn 0 0 1
vn 0 0 -1
vn 0 1 0
vn 0 -1 0
vn 1 0 0
vn -1 0 0
f 1057 1063 1061
f 1057 1061 1064
f 1057 1063 1059
f 1057 1059 1058
f 1058 1059 1060
f 1058 1060 1062
f 1057 1064 1062
f 1057 1062 1058 
f 1063 1061 1060
f 1063 1060 1059
f 1064 1061 1060
f 1064 1060 1062
v 1423 1865 446
v 1463 1865 446
v 1463 1905 446
v 1463 1905 556
v 1423 1905 556
v 1463 1865 556
v 1423 1905 446
v 1423 1865 556
vn 0 0 1
vn 0 0 -1
vn 0 1 0
vn 0 -1 0
vn 1 0 0
vn -1 0 0
f 1065 1071 1069
f 1065 1069 1072
f 1065 1071 1067
f 1065 1067 1066
f 1066 1067 1068
f 1066 1068 1070
f 1065 1072 1070
f 1065 1070 1066 
f 1071 1069 1068
f 1071 1068 1067
f 1072 1069 1068
f 1072 1068 1070
v 1423 1865 516
v 1463 1865 516
v 1463 1905 516
v 1463 1905 567
v 1423 1905 567
v 1463 1865 567
v 1423 1905 516
v 1423 1865 567
vn 0 0 1
vn 0 0 -1
vn 0 1 0
vn 0 -1 0
vn 1 0 0
vn -1 0 0
f 1073 1079 1077
f 1073 1077 1080
f 1073 1079 1075
f 1073 1075 1074
f 1074 1075 1076
f 1074 1076 1078
f 1073 1080 1078
f 1073 1078 1074 
f 1079 1077 1076
f 1079 1076 1075
f 1080 1077 1076
f 1080 1076 1078
v 1862 1737 609
v 1902 1737 609
v 1902 1785 609
v 1902 1785 649
v 1862 1785 649
v 1902 1737 649
v 1862 1785 609
v 1862 1737 649
vn 0 0 1
vn 0 0 -1
vn 0 1 0
vn 0 -1 0
vn 1 0 0
vn -1 0 0
f 1081 1087 1085
f 1081 1085 1088
f 1081 1087 1083
f 1081 1083 1082
f 1082 1083 1084
f 1082 1084 1086
f 1081 1088 1086
f 1081 1086 1082 
f 1087 1085 1084
f 1087 1084 1083
f 1088 1085 1084
f 1088 1084 1086
v 1862 1745 609
v 1902 1745 609
v 1902 1785 609
v 1902 1785 649
v 1862 1785 649
v 1902 1745 649
v 1862 1785 609
v 1862 1745 649
vn 0 0 1
vn 0 0 -1
vn 0 1 0
vn 0 -1 0
vn 1 0 0
vn -1 0 0
f 1089 1095 1093
f 1089 1093 1096
f 1089 1095 1091
f 1089 1091 1090
f 1090 1091 1092
f 1090 1092 1094
f 1089 1096 1094
f 1089 1094 1090 
f 1095 1093 1092
f 1095 1092 1091
f 1096 1093 1092
f 1096 1092 1094
v 1862 1745 609
v 1902 1745 609
v 1902 1835 609
v 1902 1835 649
v 1862 1835 649
v 1902 1745 649
v 1862 1835 609
v 1862 1745 649
vn 0 0 1
vn 0 0 -1
vn 0 1 0
vn 0 -1 0
vn 1 0 0
vn -1 0 0
f 1097 1103 1101
f 1097 1101 1104
f 1097 1103 1099
f 1097 1099 1098
f 1098 1099 1100
f 1098 1100 1102
f 1097 1104 1102
f 1097 1102 1098 
f 1103 1101 1100
f 1103 1100 1099
f 1104 1101 1100
f 1104 1100 1102
v 1862 1795 609
v 1902 1795 609
v 1902 1835 609
v 1902 1835 648
v 1862 1835 648
v 1902 1795 648
v 1862 1835 609
v 1862 1795 648
vn 0 0 1
vn 0 0 -1
vn 0 1 0
vn 0 -1 0
vn 1 0 0
vn -1 0 0
f 1105 1111 1109
f 1105 1109 1112
f 1105 1111 1107
f 1105 1107 1106
f 1106 1107 1108
f 1106 1108 1110
f 1105 1112 1110
f 1105 1110 1106 
f 1111 1109 1108
f 1111 1108 1107
f 1112 1109 1108
f 1112 1108 1110
v 1862 1795 608
v 1902 1795 608
v 1902 1843 608
v 1902 1843 648
v 1862 1843 648
v 1902 1795 648
v 1862 1843 608
v 1862 1795 648
vn 0 0 1
vn 0 0 -1
vn 0 1 0
vn 0 -1 0
vn 1 0 0
vn -1 0 0
f 1113 1119 1117
f 1113 1117 1120
f 1113 1119 1115
f 1113 1115 1114
f 1114 1115 1116
f 1114 1116 1118
f 1113 1120 1118
f 1113 1118 1114 
f 1119 1117 1116
f 1119 1116 1115
f 1120 1117 1116
f 1120 1116 1118
v 1862 1467 337
v 1902 1467 337
v 1902 1507 337
v 1902 1507 386
v 1862 1507 386
v 1902 1467 386
v 1862 1507 337
v 1862 1467 386
vn 0 0 1
vn 0 0 -1
vn 0 1 0
vn 0 -1 0
vn 1 0 0
vn -1 0 0
f 1121 1127 1125
f 1121 1125 1128
f 1121 1127 1123
f 1121 1123 1122
f 1122 1123 1124
f 1122 1124 1126
f 1121 1128 1126
f 1121 1126 1122 
f 1127 1125 1124
f 1127 1124 1123
f 1128 1125 1124
f 1128 1124 1126
v 1862 1467 346
v 1902 1467 346
v 1902 1507 346
v 1902 1507 386
v 1862 1507 386
v 1902 1467 386
v 1862 1507 346
v 1862 1467 386
vn 0 0 1
vn 0 0 -1
vn 0 1 0
vn 0 -1 0
vn 1 0 0
vn -1 0 0
f 1129 1135 1133
f 1129 1133 1136
f 1129 1135 1131
f 1129 1131 1130
f 1130 1131 1132
f 1130 1132 1134
f 1129 1136 1134
f 1129 1134 1130 
f 1135 1133 1132
f 1135 1132 1131
f 1136 1133 1132
f 1136 1132 1134
v 1862 1467 346
v 1902 1467 346
v 1902 1943 346
v 1902 1943 386
v 1862 1943 386
v 1902 1467 386
v 1862 1943 346
v 1862 1467 386
vn 0 0 1
vn 0 0 -1
vn 0 1 0
vn 0 -1 0
vn 1 0 0
vn -1 0 0
f 1137 1143 1141
f 1137 1141 1144
f 1137 1143 1139
f 1137 1139 1138
f 1138 1139 1140
f 1138 1140 1142
f 1137 1144 1142
f 1137 1142 1138 
f 1143 1141 1140
f 1143 1140 1139
f 1144 1141 1140
f 1144 1140 1142
v 1862 1903 346
v 1902 1903 346
v 1902 1943 346
v 1902 1943 445
v 1862 1943 445
v 1902 1903 445
v 1862 1943 346
v 1862 1903 445
vn 0 0 1
vn 0 0 -1
vn 0 1 0
vn 0 -1 0
vn 1 0 0
vn -1 0 0
f 1145 1151 1149
f 1145 1149 1152
f 1145 1151 1147
f 1145 1147 1146
f 1146 1147 1148
f 1146 1148 1150
f 1145 1152 1150
f 1145 1150 1146 
f 1151 1149 1148
f 1151 1148 1147
f 1152 1149 1148
f 1152 1148 1150
v 1862 1903 405
v 1902 1903 405
v 1902 1943 405
v 1902 1943 454
v 1862 1943 454
v 1902 1903 454
v 1862 1943 405
v 1862 1903 454
vn 0 0 1
vn 0 0 -1
vn 0 1 0
vn 0 -1 0
vn 1 0 0
vn -1 0 0
f 1153 1159 1157
f 1153 1157 1160
f 1153 1159 1155
f 1153 1155 1154
f 1154 1155 1156
f 1154 1156 1158
f 1153 1160 1158
f 1153 1158 1154 
f 1159 1157 1156
f 1159 1156 1155
f 1160 1157 1156
f 1160 1156 1158
v 1641 1866 669
v 1692 1866 669
v 1692 1906 669
v 1692 1906 709
v 1641 1906 709
v 1692 1866 709
v 1641 1906 669
v 1641 1866 709
vn 0 0 1
vn 0 0 -1
vn 0 1 0
vn 0 -1 0
vn 1 0 0
vn -1 0 0
f 1161 1167 1165
f 1161 1165 1168
f 1161 1167 1163
f 1161 1163 1162
f 1162 1163 1164
f 1162 1164 1166
f 1161 1168 1166
f 1161 1166 1162 
f 1167 1165 1164
f 1167 1164 1163
f 1168 1165 1164
f 1168 1164 1166
v 1652 1866 669
v 1759 1866 669
v 1759 1906 669
v 1759 1906 709
v 1652 1906 709
v 1759 1866 709
v 1652 1906 669
v 1652 1866 709
vn 0 0 1
vn 0 0 -1
vn 0 1 0
vn 0 -1 0
vn 1 0 0
vn -1 0 0
f 1169 1175 1173
f 1169 1173 1176
f 1169 1175 1171
f 1169 1171 1170
f 1170 1171 1172
f 1170 1172 1174
f 1169 1176 1174
f 1169 1174 1170 
f 1175 1173 1172
f 1175 1172 1171
f 1176 1173 1172
f 1176 1172 1174
v 1719 1866 669
v 1759 1866 669
v 1759 1943 669
v 1759 1943 709
v 1719 1943 709
v 1759 1866 709
v 1719 1943 669
v 1719 1866 709
vn 0 0 1
vn 0 0 -1
vn 0 1 0
vn 0 -1 0
vn 1 0 0
vn -1 0 0
f 1177 1183 1181
f 1177 1181 1184
f 1177 1183 1179
f 1177 1179 1178
f 1178 1179 1180
f 1178 1180 1182
f 1177 1184 1182
f 1177 1182 1178 
f 1183 1181 1180
f 1183 1180 1179
f 1184 1181 1180
f 1184 1180 1182
v 1719 1903 669
v 1759 1903 669
v 1759 1943 669
v 1759 1943 648
v 1719 1943 648
v 1759 1903 648
v 1719 1943 669
v 1719 1903 648
vn 0 0 1
vn 0 0 -1
vn 0 1 0
vn 0 -1 0
vn 1 0 0
vn -1 0 0
f 1185 1191 1189
f 1185 1189 1192
f 1185 1191 1187
f 1185 1187 1186
f 1186 1187 1188
f 1186 1188 1190
f 1185 1192 1190
f 1185 1190 1186 
f 1191 1189 1188
f 1191 1188 1187
f 1192 1189 1188
f 1192 1188 1190
v 1719 1903 608
v 1770 1903 608
v 1770 1943 608
v 1770 1943 648
v 1719 1943 648
v 1770 1903 648
v 1719 1943 608
v 1719 1903 648
vn 0 0 1
vn 0 0 -1
vn 0 1 0
vn 0 -1 0
vn 1 0 0
vn -1 0 0
f 1193 1199 1197
f 1193 1197 1200
f 1193 1199 1195
f 1193 1195 1194
f 1194 1195 1196
f 1194 1196 1198
f 1193 1200 1198
f 1193 1198 1194 
f 1199 1197 1196
f 1199 1196 1195
f 1200 1197 1196
f 1200 1196 1198
v 1405 1591 1142
v 1445 1591 1142
v 1445 1641 1142
v 1445 1641 1182
v 1405 1641 1182
v 1445 1591 1182
v 1405 1641 1142
v 1405 1591 1182
vn 0 0 1
vn 0 0 -1
vn 0 1 0
vn 0 -1 0
vn 1 0 0
vn -1 0 0
f 1201 1207 1205
f 1201 1205 1208
f 1201 1207 1203
f 1201 1203 1202
f 1202 1203 1204
f 1202 1204 1206
f 1201 1208 1206
f 1201 1206 1202 
f 1207 1205 1204
f 1207 1204 1203
f 1208 1205 1204
f 1208 1204 1206
v 1405 1601 1142
v 1445 1601 1142
v 1445 1641 1142
v 1445 1641 1182
v 1405 1641 1182
v 1445 1601 1182
v 1405 1641 1142
v 1405 1601 1182
vn 0 0 1
vn 0 0 -1
vn 0 1 0
vn 0 -1 0
vn 1 0 0
vn -1 0 0
f 1209 1215 1213
f 1209 1213 1216
f 1209 1215 1211
f 1209 1211 1210
f 1210 1211 1212
f 1210 1212 1214
f 1209 1216 1214
f 1209 1214 1210 
f 1215 1213 1212
f 1215 1212 1211
f 1216 1213 1212
f 1216 1212 1214
v 1405 1601 1142
v 1445 1601 1142
v 1445 1706 1142
v 1445 1706 1182
v 1405 1706 1182
v 1445 1601 1182
v 1405 1706 1142
v 1405 1601 1182
vn 0 0 1
vn 0 0 -1
vn 0 1 0
vn 0 -1 0
vn 1 0 0
vn -1 0 0
f 1217 1223 1221
f 1217 1221 1224
f 1217 1223 1219
f 1217 1219 1218
f 1218 1219 1220
f 1218 1220 1222
f 1217 1224 1222
f 1217 1222 1218 
f 1223 1221 1220
f 1223 1220 1219
f 1224 1221 1220
f 1224 1220 1222
v 1405 1666 1142
v 1445 1666 1142
v 1445 1706 1142
v 1445 1706 1181
v 1405 1706 1181
v 1445 1666 1181
v 1405 1706 1142
v 1405 1666 1181
vn 0 0 1
vn 0 0 -1
vn 0 1 0
vn 0 -1 0
vn 1 0 0
vn -1 0 0
f 1225 1231 1229
f 1225 1229 1232
f 1225 1231 1227
f 1225 1227 1226
f 1226 1227 1228
f 1226 1228 1230
f 1225 1232 1230
f 1225 1230 1226 
f 1231 1229 1228
f 1231 1228 1227
f 1232 1229 1228
f 1232 1228 1230
v 1405 1666 1141
v 1445 1666 1141
v 1445 1716 1141
v 1445 1716 1181
v 1405 1716 1181
v 1445 1666 1181
v 1405 1716 1141
v 1405 1666 1181
vn 0 0 1
vn 0 0 -1
vn 0 1 0
vn 0 -1 0
vn 1 0 0
vn -1 0 0
f 1233 1239 1237
f 1233 1237 1240
f 1233 1239 1235
f 1233 1235 1234
f 1234 1235 1236
f 1234 1236 1238
f 1233 1240 1238
f 1233 1238 1234 
f 1239 1237 1236
f 1239 1236 1235
f 1240 1237 1236
f 1240 1236 1238
v 1405 1828 1365
v 1445 1828 1365
v 1445 1868 1365
v 1445 1868 1421
v 1405 1868 1421
v 1445 1828 1421
v 1405 1868 1365
v 1405 1828 1421
vn 0 0 1
vn 0 0 -1
vn 0 1 0
vn 0 -1 0
vn 1 0 0
vn -1 0 0
f 1241 1247 1245
f 1241 1245 1248
f 1241 1247 1243
f 1241 1243 1242
f 1242 1243 1244
f 1242 1244 1246
f 1241 1248 1246
f 1241 1246 1242 
f 1247 1245 1244
f 1247 1244 1243
f 1248 1245 1244
f 1248 1244 1246
v 1405 1828 1381
v 1445 1828 1381
v 1445 1868 1381
v 1445 1868 1421
v 1405 1868 1421
v 1445 1828 1421
v 1405 1868 1381
v 1405 1828 1421
vn 0 0 1
vn 0 0 -1
vn 0 1 0
vn 0 -1 0
vn 1 0 0
vn -1 0 0
f 1249 1255 1253
f 1249 1253 1256
f 1249 1255 1251
f 1249 1251 1250
f 1250 1251 1252
f 1250 1252 1254
f 1249 1256 1254
f 1249 1254 1250 
f 1255 1253 1252
f 1255 1252 1251
f 1256 1253 1252
f 1256 1252 1254
v 1405 1828 1381
v 1445 1828 1381
v 1445 1484 1381
v 1445 1484 1421
v 1405 1484 1421
v 1445 1828 1421
v 1405 1484 1381
v 1405 1828 1421
vn 0 0 1
vn 0 0 -1
vn 0 1 0
vn 0 -1 0
vn 1 0 0
vn -1 0 0
f 1257 1263 1261
f 1257 1261 1264
f 1257 1263 1259
f 1257 1259 1258
f 1258 1259 1260
f 1258 1260 1262
f 1257 1264 1262
f 1257 1262 1258 
f 1263 1261 1260
f 1263 1260 1259
f 1264 1261 1260
f 1264 1260 1262
v 1405 1444 1381
v 1445 1444 1381
v 1445 1484 1381
v 1445 1484 1517
v 1405 1484 1517
v 1445 1444 1517
v 1405 1484 1381
v 1405 1444 1517
vn 0 0 1
vn 0 0 -1
vn 0 1 0
vn 0 -1 0
vn 1 0 0
vn -1 0 0
f 1265 1271 1269
f 1265 1269 1272
f 1265 1271 1267
f 1265 1267 1266
f 1266 1267 1268
f 1266 1268 1270
f 1265 1272 1270
f 1265 1270 1266 
f 1271 1269 1268
f 1271 1268 1267
f 1272 1269 1268
f 1272 1268 1270
v 1405 1444 1477
v 1445 1444 1477
v 1445 1484 1477
v 1445 1484 1533
v 1405 1484 1533
v 1445 1444 1533
v 1405 1484 1477
v 1405 1444 1533
vn 0 0 1
vn 0 0 -1
vn 0 1 0
vn 0 -1 0
vn 1 0 0
vn -1 0 0
f 1273 1279 1277
f 1273 1277 1280
f 1273 1279 1275
f 1273 1275 1274
f 1274 1275 1276
f 1274 1276 1278
f 1273 1280 1278
f 1273 1278 1274 
f 1279 1277 1276
f 1279 1276 1275
f 1280 1277 1276
f 1280 1276 1278
v 1844 1523 1760
v 1884 1523 1760
v 1884 1571 1760
v 1884 1571 1800
v 1844 1571 1800
v 1884 1523 1800
v 1844 1571 1760
v 1844 1523 1800
vn 0 0 1
vn 0 0 -1
vn 0 1 0
vn 0 -1 0
vn 1 0 0
vn -1 0 0
f 1281 1287 1285
f 1281 1285 1288
f 1281 1287 1283
f 1281 1283 1282
f 1282 1283 1284
f 1282 1284 1286
f 1281 1288 1286
f 1281 1286 1282 
f 1287 1285 1284
f 1287 1284 1283
f 1288 1285 1284
f 1288 1284 1286
v 1844 1531 1760
v 1883 1531 1760
v 1883 1571 1760
v 1883 1571 1800
v 1844 1571 1800
v 1883 1531 1800
v 1844 1571 1760
v 1844 1531 1800
vn 0 0 1
vn 0 0 -1
vn 0 1 0
vn 0 -1 0
vn 1 0 0
vn -1 0 0
f 1289 1295 1293
f 1289 1293 1296
f 1289 1295 1291
f 1289 1291 1290
f 1290 1291 1292
f 1290 1292 1294
f 1289 1296 1294
f 1289 1294 1290 
f 1295 1293 1292
f 1295 1292 1291
f 1296 1293 1292
f 1296 1292 1294
v 1843 1531 1760
v 1883 1531 1760
v 1883 1621 1760
v 1883 1621 1800
v 1843 1621 1800
v 1883 1531 1800
v 1843 1621 1760
v 1843 1531 1800
vn 0 0 1
vn 0 0 -1
vn 0 1 0
vn 0 -1 0
vn 1 0 0
vn -1 0 0
f 1297 1303 1301
f 1297 1301 1304
f 1297 1303 1299
f 1297 1299 1298
f 1298 1299 1300
f 1298 1300 1302
f 1297 1304 1302
f 1297 1302 1298 
f 1303 1301 1300
f 1303 1300 1299
f 1304 1301 1300
f 1304 1300 1302
v 1843 1581 1760
v 1883 1581 1760
v 1883 1621 1760
v 1883 1621 1799
v 1843 1621 1799
v 1883 1581 1799
v 1843 1621 1760
v 1843 1581 1799
vn 0 0 1
vn 0 0 -1
vn 0 1 0
vn 0 -1 0
vn 1 0 0
vn -1 0 0
f 1305 1311 1309
f 1305 1309 1312
f 1305 1311 1307
f 1305 1307 1306
f 1306 1307 1308
f 1306 1308 1310
f 1305 1312 1310
f 1305 1310 1306 
f 1311 1309 1308
f 1311 1308 1307
f 1312 1309 1308
f 1312 1308 1310
v 1843 1581 1759
v 1883 1581 1759
v 1883 1629 1759
v 1883 1629 1799
v 1843 1629 1799
v 1883 1581 1799
v 1843 1629 1759
v 1843 1581 1799
vn 0 0 1
vn 0 0 -1
vn 0 1 0
vn 0 -1 0
vn 1 0 0
vn -1 0 0
f 1313 1319 1317
f 1313 1317 1320
f 1313 1319 1315
f 1313 1315 1314
f 1314 1315 1316
f 1314 1316 1318
f 1313 1320 1318
f 1313 1318 1314 
f 1319 1317 1316
f 1319 1316 1315
f 1320 1317 1316
f 1320 1316 1318
v 1844 1426 1422
v 1884 1426 1422
v 1884 1466 1422
v 1884 1466 1476
v 1844 1466 1476
v 1884 1426 1476
v 1844 1466 1422
v 1844 1426 1476
vn 0 0 1
vn 0 0 -1
vn 0 1 0
vn 0 -1 0
vn 1 0 0
vn -1 0 0
f 1321 1327 1325
f 1321 1325 1328
f 1321 1327 1323
f 1321 1323 1322
f 1322 1323 1324
f 1322 1324 1326
f 1321 1328 1326
f 1321 1326 1322 
f 1327 1325 1324
f 1327 1324 1323
f 1328 1325 1324
f 1328 1324 1326
v 1844 1426 1436
v 1883 1426 1436
v 1883 1466 1436
v 1883 1466 1476
v 1844 1466 1476
v 1883 1426 1476
v 1844 1466 1436
v 1844 1426 1476
vn 0 0 1
vn 0 0 -1
vn 0 1 0
vn 0 -1 0
vn 1 0 0
vn -1 0 0
f 1329 1335 1333
f 1329 1333 1336
f 1329 1335 1331
f 1329 1331 1330
f 1330 1331 1332
f 1330 1332 1334
f 1329 1336 1334
f 1329 1334 1330 
f 1335 1333 1332
f 1335 1332 1331
f 1336 1333 1332
f 1336 1332 1334
v 1843 1426 1436
v 1883 1426 1436
v 1883 1828 1436
v 1883 1828 1476
v 1843 1828 1476
v 1883 1426 1476
v 1843 1828 1436
v 1843 1426 1476
vn 0 0 1
vn 0 0 -1
vn 0 1 0
vn 0 -1 0
vn 1 0 0
vn -1 0 0
f 1337 1343 1341
f 1337 1341 1344
f 1337 1343 1339
f 1337 1339 1338
f 1338 1339 1340
f 1338 1340 1342
f 1337 1344 1342
f 1337 1342 1338 
f 1343 1341 1340
f 1343 1340 1339
f 1344 1341 1340
f 1344 1340 1342
v 1843 1788 1436
v 1883 1788 1436
v 1883 1828 1436
v 1883 1828 1565
v 1843 1828 1565
v 1883 1788 1565
v 1843 1828 1436
v 1843 1788 1565
vn 0 0 1
vn 0 0 -1
vn 0 1 0
vn 0 -1 0
vn 1 0 0
vn -1 0 0
f 1345 1351 1349
f 1345 1349 1352
f 1345 1351 1347
f 1345 1347 1346
f 1346 1347 1348
f 1346 1348 1350
f 1345 1352 1350
f 1345 1350 1346 
f 1351 1349 1348
f 1351 1348 1347
f 1352 1349 1348
f 1352 1348 1350
v 1843 1788 1525
v 1883 1788 1525
v 1883 1828 1525
v 1883 1828 1579
v 1843 1828 1579
v 1883 1788 1579
v 1843 1828 1525
v 1843 1788 1579
vn 0 0 1
vn 0 0 -1
vn 0 1 0
vn 0 -1 0
vn 1 0 0
vn -1 0 0
f 1353 1359 1357
f 1353 1357 1360
f 1353 1359 1355
f 1353 1355 1354
f 1354 1355 1356
f 1354 1356 1358
f 1353 1360 1358
f 1353 1358 1354 
f 1359 1357 1356
f 1359 1356 1355
f 1360 1357 1356
f 1360 1356 1358
v 1611 1445 1733
v 1661 1445 1733
v 1661 1485 1733
v 1661 1485 1773
v 1611 1485 1773
v 1661 1445 1773
v 1611 1485 1733
v 1611 1445 1773
vn 0 0 1
vn 0 0 -1
vn 0 1 0
vn 0 -1 0
vn 1 0 0
vn -1 0 0
f 1361 1367 1365
f 1361 1365 1368
f 1361 1367 1363
f 1361 1363 1362
f 1362 1363 1364
f 1362 1364 1366
f 1361 1368 1366
f 1361 1366 1362 
f 1367 1365 1364
f 1367 1364 1363
f 1368 1365 1364
f 1368 1364 1366
v 1621 1445 1733
v 1726 1445 1733
v 1726 1485 1733
v 1726 1485 1773
v 1621 1485 1773
v 1726 1445 1773
v 1621 1485 1733
v 1621 1445 1773
vn 0 0 1
vn 0 0 -1
vn 0 1 0
vn 0 -1 0
vn 1 0 0
vn -1 0 0
f 1369 1375 1373
f 1369 1373 1376
f 1369 1375 1371
f 1369 1371 1370
f 1370 1371 1372
f 1370 1372 1374
f 1369 1376 1374
f 1369 1374 1370 
f 1375 1373 1372
f 1375 1372 1371
f 1376 1373 1372
f 1376 1372 1374
v 1686 1445 1733
v 1726 1445 1733
v 1726 1828 1733
v 1726 1828 1773
v 1686 1828 1773
v 1726 1445 1773
v 1686 1828 1733
v 1686 1445 1773
vn 0 0 1
vn 0 0 -1
vn 0 1 0
vn 0 -1 0
vn 1 0 0
vn -1 0 0
f 1377 1383 1381
f 1377 1381 1384
f 1377 1383 1379
f 1377 1379 1378
f 1378 1379 1380
f 1378 1380 1382
f 1377 1384 1382
f 1377 1382 1378 
f 1383 1381 1380
f 1383 1380 1379
f 1384 1381 1380
f 1384 1380 1382
v 1686 1788 1733
v 1726 1788 1733
v 1726 1828 1733
v 1726 1828 1799
v 1686 1828 1799
v 1726 1788 1799
v 1686 1828 1733
v 1686 1788 1799
vn 0 0 1
vn 0 0 -1
vn 0 1 0
vn 0 -1 0
vn 1 0 0
vn -1 0 0
f 1385 1391 1389
f 1385 1389 1392
f 1385 1391 1387
f 1385 1387 1386
f 1386 1387 1388
f 1386 1388 1390
f 1385 1392 1390
f 1385 1390 1386 
f 1391 1389 1388
f 1391 1388 1387
f 1392 1389 1388
f 1392 1388 1390
v 1686 1788 1759
v 1736 1788 1759
v 1736 1828 1759
v 1736 1828 1799
v 1686 1828 1799
v 1736 1788 1799
v 1686 1828 1759
v 1686 1788 1799
vn 0 0 1
vn 0 0 -1
vn 0 1 0
vn 0 -1 0
vn 1 0 0
vn -1 0 0
f 1393 1399 1397
f 1393 1397 1400
f 1393 1399 1395
f 1393 1395 1394
f 1394 1395 1396
f 1394 1396 1398
f 1393 1400 1398
f 1393 1398 1394 
f 1399 1397 1396
f 1399 1396 1395
f 1400 1397 1396
f 1400 1396 1398
v 1862 1904 801
v 1902 1904 801
v 1902 1944 801
v 1902 1944 855
v 1862 1944 855
v 1902 1904 855
v 1862 1944 801
v 1862 1904 855
vn 0 0 1
vn 0 0 -1
vn 0 1 0
vn 0 -1 0
vn 1 0 0
vn -1 0 0
f 1401 1407 1405
f 1401 1405 1408
f 1401 1407 1403
f 1401 1403 1402
f 1402 1403 1404
f 1402 1404 1406
f 1401 1408 1406
f 1401 1406 1402 
f 1407 1405 1404
f 1407 1404 1403
f 1408 1405 1404
f 1408 1404 1406
v 1862 1904 815
v 1445 1904 815
v 1445 1944 815
v 1445 1944 855
v 1862 1944 855
v 1445 1904 855
v 1862 1944 815
v 1862 1904 855
vn 0 0 1
vn 0 0 -1
vn 0 1 0
vn 0 -1 0
vn 1 0 0
vn -1 0 0
f 1409 1415 1413
f 1409 1413 1416
f 1409 1415 1411
f 1409 1411 1410
f 1410 1411 1412
f 1410 1412 1414
f 1409 1416 1414
f 1409 1414 1410 
f 1415 1413 1412
f 1415 1412 1411
f 1416 1413 1412
f 1416 1412 1414
v 1405 1904 815
v 1445 1904 815
v 1445 1868 815
v 1445 1868 855
v 1405 1868 855
v 1445 1904 855
v 1405 1868 815
v 1405 1904 855
vn 0 0 1
vn 0 0 -1
vn 0 1 0
vn 0 -1 0
vn 1 0 0
vn -1 0 0
f 1417 1423 1421
f 1417 1421 1424
f 1417 1423 1419
f 1417 1419 1418
f 1418 1419 1420
f 1418 1420 1422
f 1417 1424 1422
f 1417 1422 1418 
f 1423 1421 1420
f 1423 1420 1419
f 1424 1421 1420
f 1424 1420 1422
v 1405 1828 815
v 1445 1828 815
v 1445 1868 815
v 1445 1868 942
v 1405 1868 942
v 1445 1828 942
v 1405 1868 815
v 1405 1828 942
vn 0 0 1
vn 0 0 -1
vn 0 1 0
vn 0 -1 0
vn 1 0 0
vn -1 0 0
f 1425 1431 1429
f 1425 1429 1432
f 1425 1431 1427
f 1425 1427 1426
f 1426 1427 1428
f 1426 1428 1430
f 1425 1432 1430
f 1425 1430 1426 
f 1431 1429 1428
f 1431 1428 1427
f 1432 1429 1428
f 1432 1428 1430
v 1405 1828 902
v 1445 1828 902
v 1445 1868 902
v 1445 1868 956
v 1405 1868 956
v 1445 1828 956
v 1405 1868 902
v 1405 1828 956
vn 0 0 1
vn 0 0 -1
vn 0 1 0
vn 0 -1 0
vn 1 0 0
vn -1 0 0
f 1433 1439 1437
f 1433 1437 1440
f 1433 1439 1435
f 1433 1435 1434
f 1434 1435 1436
f 1434 1436 1438
f 1433 1440 1438
f 1433 1438 1434 
f 1439 1437 1436
f 1439 1436 1435
f 1440 1437 1436
f 1440 1436 1438
v 1057 1897 1761
v 1114 1897 1761
v 1114 1937 1761
v 1114 1937 1801
v 1057 1937 1801
v 1114 1897 1801
v 1057 1937 1761
v 1057 1897 1801
vn 0 0 1
vn 0 0 -1
vn 0 1 0
vn 0 -1 0
vn 1 0 0
vn -1 0 0
f 1441 1447 1445
f 1441 1445 1448
f 1441 1447 1443
f 1441 1443 1442
f 1442 1443 1444
f 1442 1444 1446
f 1441 1448 1446
f 1441 1446 1442 
f 1447 1445 1444
f 1447 1444 1443
f 1448 1445 1444
f 1448 1444 1446
v 1074 1897 1761
v 1220 1897 1761
v 1220 1937 1761
v 1220 1937 1801
v 1074 1937 1801
v 1220 1897 1801
v 1074 1937 1761
v 1074 1897 1801
vn 0 0 1
vn 0 0 -1
vn 0 1 0
vn 0 -1 0
vn 1 0 0
vn -1 0 0
f 1449 1455 1453
f 1449 1453 1456
f 1449 1455 1451
f 1449 1451 1450
f 1450 1451 1452
f 1450 1452 1454
f 1449 1456 1454
f 1449 1454 1450 
f 1455 1453 1452
f 1455 1452 1451
f 1456 1453 1452
f 1456 1452 1454
v 1180 1897 1761
v 1220 1897 1761
v 1220 1484 1761
v 1220 1484 1801
v 1180 1484 1801
v 1220 1897 1801
v 1180 1484 1761
v 1180 1897 1801
vn 0 0 1
vn 0 0 -1
vn 0 1 0
vn 0 -1 0
vn 1 0 0
vn -1 0 0
f 1457 1463 1461
f 1457 1461 1464
f 1457 1463 1459
f 1457 1459 1458
f 1458 1459 1460
f 1458 1460 1462
f 1457 1464 1462
f 1457 1462 1458 
f 1463 1461 1460
f 1463 1460 1459
f 1464 1461 1460
f 1464 1460 1462
v 1180 1444 1761
v 1220 1444 1761
v 1220 1484 1761
v 1220 1484 1773
v 1180 1484 1773
v 1220 1444 1773
v 1180 1484 1761
v 1180 1444 1773
vn 0 0 1
vn 0 0 -1
vn 0 1 0
vn 0 -1 0
vn 1 0 0
vn -1 0 0
f 1465 1471 1469
f 1465 1469 1472
f 1465 1471 1467
f 1465 1467 1466
f 1466 1467 1468
f 1466 1468 1470
f 1465 1472 1470
f 1465 1470 1466 
f 1471 1469 1468
f 1471 1468 1467
f 1472 1469 1468
f 1472 1468 1470
v 1180 1444 1733
v 1237 1444 1733
v 1237 1484 1733
v 1237 1484 1773
v 1180 1484 1773
v 1237 1444 1773
v 1180 1484 1733
v 1180 1444 1773
vn 0 0 1
vn 0 0 -1
vn 0 1 0
vn 0 -1 0
vn 1 0 0
vn -1 0 0
f 1473 1479 1477
f 1473 1477 1480
f 1473 1479 1475
f 1473 1475 1474
f 1474 1475 1476
f 1474 1476 1478
f 1473 1480 1478
f 1473 1478 1474 
f 1479 1477 1476
f 1479 1476 1475
f 1480 1477 1476
f 1480 1476 1478
v 1664 1225 1745
v 1704 1225 1745
v 1704 1274 1745
v 1704 1274 1785
v 1664 1274 1785
v 1704 1225 1785
v 1664 1274 1745
v 1664 1225 1785
vn 0 0 1
vn 0 0 -1
vn 0 1 0
vn 0 -1 0
vn 1 0 0
vn -1 0 0
f 1481 1487 1485
f 1481 1485 1488
f 1481 1487 1483
f 1481 1483 1482
f 1482 1483 1484
f 1482 1484 1486
f 1481 1488 1486
f 1481 1486 1482 
f 1487 1485 1484
f 1487 1484 1483
f 1488 1485 1484
f 1488 1484 1486
v 1664 1234 1745
v 1883 1234 1745
v 1883 1274 1745
v 1883 1274 1785
v 1664 1274 1785
v 1883 1234 1785
v 1664 1274 1745
v 1664 1234 1785
vn 0 0 1
vn 0 0 -1
vn 0 1 0
vn 0 -1 0
vn 1 0 0
vn -1 0 0
f 1489 1495 1493
f 1489 1493 1496
f 1489 1495 1491
f 1489 1491 1490
f 1490 1491 1492
f 1490 1492 1494
f 1489 1496 1494
f 1489 1494 1490 
f 1495 1493 1492
f 1495 1492 1491
f 1496 1493 1492
f 1496 1492 1494
v 1843 1234 1745
v 1883 1234 1745
v 1883 1328 1745
v 1883 1328 1785
v 1843 1328 1785
v 1883 1234 1785
v 1843 1328 1745
v 1843 1234 1785
vn 0 0 1
vn 0 0 -1
vn 0 1 0
vn 0 -1 0
vn 1 0 0
vn -1 0 0
f 1497 1503 1501
f 1497 1501 1504
f 1497 1503 1499
f 1497 1499 1498
f 1498 1499 1500
f 1498 1500 1502
f 1497 1504 1502
f 1497 1502 1498 
f 1503 1501 1500
f 1503 1500 1499
f 1504 1501 1500
f 1504 1500 1502
v 1843 1288 1745
v 1883 1288 1745
v 1883 1328 1745
v 1883 1328 1799
v 1843 1328 1799
v 1883 1288 1799
v 1843 1328 1745
v 1843 1288 1799
vn 0 0 1
vn 0 0 -1
vn 0 1 0
vn 0 -1 0
vn 1 0 0
vn -1 0 0
f 1505 1511 1509
f 1505 1509 1512
f 1505 1511 1507
f 1505 1507 1506
f 1506 1507 1508
f 1506 1508 1510
f 1505 1512 1510
f 1505 1510 1506 
f 1511 1509 1508
f 1511 1508 1507
f 1512 1509 1508
f 1512 1508 1510
v 1843 1288 1759
v 1883 1288 1759
v 1883 1337 1759
v 1883 1337 1799
v 1843 1337 1799
v 1883 1288 1799
v 1843 1337 1759
v 1843 1288 1799
vn 0 0 1
vn 0 0 -1
vn 0 1 0
vn 0 -1 0
vn 1 0 0
vn -1 0 0
f 1513 1519 1517
f 1513 1517 1520
f 1513 1519 1515
f 1513 1515 1514
f 1514 1515 1516
f 1514 1516 1518
f 1513 1520 1518
f 1513 1518 1514 
f 1519 1517 1516
f 1519 1516 1515
f 1520 1517 1516
f 1520 1516 1518
